<?xml version="1.0" encoding="UTF-8"?>
<svg width="22px" height="25px" viewBox="0 0 22 25" xmlns="http://www.w3.org/2000/svg" xmlns:xlink="http://www.w3.org/1999/xlink">
    <g id="Page-1" stroke="none" stroke-width="1" fill="none" fill-rule="evenodd" opacity="0.5">
        <g id="M_future_cases_alor" transform="translate(-38.000000, -427.000000)" fill="#000000">
            <g id="apple_store" transform="translate(20.000000, 412.000000)">
                <path d="M33.6598602,20.7313775 C35.3349436,20.7313775 37.1098136,21.6415484 38.3746635,23.2141042 C34.2306392,25.4795757 34.9038657,31.3817485 39.0909091,32.9600565 C38.5143646,34.2348268 38.2385103,34.803407 37.4960984,35.9295057 C36.4609793,37.5020615 35.0014348,39.4595705 33.1933026,39.476827 C31.5856306,39.4914287 31.1731795,38.4330287 28.9920674,38.4449755 C26.8113988,38.4573648 26.3559287,39.4949685 24.7487001,39.4803668 C22.9401245,39.4639952 21.5568612,37.6958655 20.5212986,36.1237521 C17.6252714,31.726879 17.3228073,26.5667366 19.1087647,23.8233922 C20.3780495,21.8738477 22.3799893,20.7331474 24.2626288,20.7331474 C26.1798609,20.7331474 27.3848388,21.7813705 28.9694491,21.7813705 C30.5070489,21.7813705 31.4437119,20.7313775 33.6598602,20.7313775 Z M33.1733453,15 C33.3950932,16.4880431 32.7835126,17.9433431 31.9785678,18.9743096 C31.1164121,20.078727 29.6307013,20.9344735 28.1951056,20.890226 C27.9329996,19.4663417 28.6062261,18.0013073 29.4213713,17.0137033 C30.3194502,15.9256575 31.8579369,15.0907074 33.1733453,15 Z" id="Icon---Apple"></path>
            </g>
        </g>
    </g>
</svg>