<svg width="102" height="37" xmlns="http://www.w3.org/2000/svg"><path d="M24.826 32.423c3.161 0 6.59 1.08 10.387 4.434.38.336.886-.081.555-.498-3.73-4.697-7.181-5.591-10.622-6.347-4.21-.925-6.374-3.286-7.883-5.879-.3-.516-.435-.425-.462.238-.033.811.023 1.884.205 2.94-.17.008-.34.005-.512.005-6.022 0-10.903-4.867-10.903-10.87 0-6.005 4.88-10.872 10.903-10.872 6.021 0 10.903 4.867 10.903 10.871 0 .427-.021.85-.07 1.264-.796-.143-2.363-.159-3.462-.064-.414.035-.356.227-.043.284 3.604.65 6.08 2.876 6.647 6.918.013.093.135.12.183.04a16.333 16.333 0 002.335-8.442C32.987 7.363 25.603 0 16.494 0 7.384 0 0 7.363 0 16.445c0 9.083 7.385 16.447 16.494 16.447 2.416 0 4.814-.469 8.332-.469zm1.228-5.971c.734.619.957 1.354.569 1.873-.216.284-.566.441-.985.441-.412 0-.831-.152-1.123-.405-.667-.581-.863-1.524-.427-2.06.17-.209.447-.324.778-.324.403 0 .825.169 1.188.475zm3.386-1.57c.108.72-.121 1.018-.35 1.018-.25 0-.565-.292-.935-.868-.366-.57-.5-1.222-.318-1.552.12-.219.37-.313.686-.194.612.23.852 1.165.917 1.595zm22.863-3.767l-1.902-2.28a.367.367 0 01.284-.602h3.978c.19-.562.296-1.163.296-1.787 0-2.856-2.132-5.32-5.06-5.32-2.926 0-5.058 2.464-5.058 5.32 0 2.857 2.132 5.285 5.059 5.285.887 0 1.7-.226 2.403-.616zm8.604 3.854c.206.228.037.595-.275.595h-4.34a.595.595 0 01-.458-.214l-.736-.883a9.544 9.544 0 01-5.198 1.535c-5.284 0-9.583-4.287-9.583-9.556 0-5.269 4.299-9.555 9.583-9.555s9.583 4.286 9.583 9.555c0 1.9-.56 3.67-1.523 5.159l2.947 3.364zM101.009 7.33h-3.543a.47.47 0 00-.471.47v17.292c0 .26.21.47.47.47h3.544a.47.47 0 00.471-.47V7.801a.47.47 0 00-.471-.47zm-5.962 0h-3.964a.47.47 0 00-.45.33l-3.137 10.22-3.448-10.23a.47.47 0 00-.446-.32h-2.767a.471.471 0 00-.447.32l-3.447 10.23-3.137-10.22a.47.47 0 00-.45-.33h-3.965a.473.473 0 00-.382.194.461.461 0 00-.064.42l5.821 17.301c.065.19.245.319.448.319h3.146a.472.472 0 00.447-.319l3.413-10.107 3.414 10.107c.064.19.244.319.447.319h3.146a.471.471 0 00.447-.319l5.822-17.3a.461.461 0 00-.064-.42.473.473 0 00-.383-.195zm-27.605.47v17.292a.47.47 0 01-.471.47h-3.543a.47.47 0 01-.471-.47V7.801c0-.26.21-.47.471-.47h3.543c.26 0 .471.21.471.47z" fill="#686868" fill-rule="evenodd"/></svg>