<svg width="114" height="32" viewBox="0 0 114 32" fill="none" xmlns="http://www.w3.org/2000/svg">
<path fill-rule="evenodd" clip-rule="evenodd" d="M104.425 20.8069C105.829 20.8845 106.183 20.8069 107.293 20.8069H108.68C109.251 20.8069 109.837 20.8694 110.407 20.8694C111.04 20.8694 111.656 20.8069 112.288 20.8069C112.581 20.8069 112.612 20.9309 112.612 21.0397C112.612 21.2413 112.519 21.2726 112.319 21.2877C111.856 21.3189 111.101 21.1949 111.101 22.2351V29.7795C111.101 31.3791 111.625 31.1463 112.319 31.1926C112.519 31.2078 112.612 31.239 112.612 31.4416C112.612 31.5495 112.581 31.6744 112.288 31.6744C111.656 31.6744 111.024 31.5807 110.392 31.5807C109.775 31.5807 109.143 31.6744 108.511 31.6744C108.449 31.6744 108.187 31.6583 108.187 31.4416C108.187 31.2239 108.357 31.2078 108.495 31.1926C109.189 31.1463 109.713 31.364 109.713 29.7795V22.2351C109.713 21.3922 109.257 21.3384 108.655 21.3352L107.524 21.335C106.383 21.335 106.522 21.6304 106.353 23.8498C106.245 25.2317 106.121 26.4886 105.813 27.9632C105.489 29.5164 104.75 32 102.93 32C102.453 32 102.005 31.7359 102.005 31.1926C102.005 30.5405 102.483 30.3077 102.869 30.3077C103.192 30.3077 103.33 30.4317 103.424 30.4941C103.516 30.5556 103.655 30.6342 103.763 30.6342C104.518 30.6342 105.629 27.8705 105.629 22.7472C105.629 21.3378 105.162 21.3035 104.616 21.2965L104.497 21.2949C104.438 21.2938 104.378 21.292 104.317 21.2877C104.179 21.2726 104.009 21.2574 104.009 21.0397C104.009 20.9621 104.055 20.7918 104.425 20.8069ZM40.1035 20.6367C40.6891 20.6367 41.1365 21.0399 41.1365 21.6296C41.1365 22.2041 40.6581 22.4833 40.2727 22.4833C39.8413 22.4833 39.6871 22.1728 39.579 21.9561C39.502 21.8009 39.4249 21.6457 39.2087 21.6457C38.8083 21.6457 38.6542 22.3129 38.454 22.9026L38.0686 24.0667C37.9756 24.3621 37.4981 25.6815 36.1569 25.9607V26.0232C37.4671 26.1784 38.1607 27.141 38.5311 27.7155L39.9334 29.9047C40.566 30.8975 40.8743 31.1777 41.3827 31.1928H41.6139C41.8912 31.1928 41.9072 31.3793 41.9072 31.4408C41.9072 31.5497 41.8762 31.6585 41.5829 31.6736H41.1665C40.9824 31.6736 40.8122 31.6736 40.627 31.6898C40.5199 31.6898 40.3958 31.7049 40.2887 31.7049C39.3478 31.7049 38.9785 31.0689 38.7162 30.6345L37.1588 28.041C36.1408 26.3497 35.4322 26.2409 34.8306 26.2409C34.4303 26.2409 34.3372 26.2711 34.2911 26.3023C34.199 26.38 34.2141 26.5664 34.2141 26.6602V29.7797C34.2141 31.3793 34.7385 31.1465 35.4322 31.1928C35.6324 31.208 35.7255 31.2392 35.7255 31.4408C35.7255 31.5497 35.6944 31.6736 35.4012 31.6736C34.7696 31.6736 34.152 31.5809 33.5204 31.5809C32.8888 31.5809 32.2712 31.6736 31.6397 31.6736C31.5316 31.6736 31.3154 31.6585 31.3154 31.4408C31.3154 31.2241 31.5005 31.1928 31.6246 31.1928C32.3023 31.1465 32.8268 31.3632 32.8268 29.7797V22.701C32.8268 21.1014 32.3023 21.3342 31.6086 21.2879C31.4084 21.2728 31.3154 21.2415 31.3154 21.0399C31.3154 20.9311 31.3464 20.8071 31.6397 20.8071C32.2712 20.8071 32.8888 20.8998 33.5204 20.8998C34.152 20.8998 34.7696 20.8071 35.4012 20.8071C35.5093 20.8071 35.7255 20.8222 35.7255 21.0399C35.7255 21.2576 35.5403 21.2879 35.4172 21.2879C34.7385 21.3342 34.2141 21.1175 34.2141 22.701L34.2139 25.4627C34.2155 25.6892 34.255 25.7752 34.8306 25.7752H35.1699C35.8946 25.7752 36.9126 25.4023 37.5442 23.6485L38.0066 22.3754C38.5621 20.8696 39.4559 20.6367 40.1035 20.6367ZM96.3183 20.4962C96.5335 20.4962 96.5646 20.6827 96.6106 20.8379C96.6168 20.8597 96.6286 20.897 96.6442 20.9446L96.7007 21.1131C96.7653 21.3021 96.8486 21.5368 96.9039 21.6765L100.126 30.1371C100.449 31.006 100.742 31.131 101.267 31.1773C101.513 31.2086 101.698 31.1924 101.698 31.4565C101.698 31.6581 101.544 31.6742 101.328 31.6742L100.912 31.6596L100.08 31.5951C99.9411 31.5864 99.8023 31.5805 99.6635 31.5805C99.0158 31.5805 98.3682 31.6742 97.7206 31.6742C97.4284 31.6742 97.2122 31.643 97.2122 31.395C97.2122 31.1612 97.4284 31.131 97.5365 31.131H97.8748C98.153 31.1461 98.6455 31.131 98.6455 30.6955C98.6455 30.6028 98.6455 30.4476 98.5224 30.122L97.7517 28.0416C97.6085 27.6523 97.4654 27.6645 97.3223 27.6682L94.5297 27.6687C94.0512 27.6687 94.0983 27.7776 94.0212 27.9943L93.3276 30.0746C93.2805 30.2147 93.2345 30.4163 93.2345 30.5564C93.2345 31.006 93.6358 31.1461 94.3755 31.1773C94.6988 31.2086 94.7759 31.2549 94.7759 31.4414C94.7759 31.5493 94.7459 31.6742 94.4526 31.6742C93.9281 31.6742 93.3886 31.5805 92.8651 31.5805C92.3867 31.5805 91.9092 31.643 91.4308 31.6742C91.3697 31.6742 91.3077 31.6894 91.2456 31.6742C90.9994 31.643 90.9844 31.4878 90.9844 31.4414C90.9844 31.2862 90.9994 31.1773 91.5079 31.1612C91.9243 31.1461 92.2325 31.1924 92.6489 30.0908L95.6247 22.0646C95.7628 21.7078 96.0091 20.9307 96.0561 20.7916C96.1021 20.6515 96.1332 20.4962 96.3183 20.4962ZM47.5478 20.4962C47.763 20.4962 47.794 20.6827 47.84 20.8379C47.8462 20.8597 47.858 20.897 47.8736 20.9446L47.9301 21.1131C47.9947 21.3021 48.0781 21.5368 48.1333 21.6765L51.3553 30.1371C51.6796 31.006 51.9719 31.131 52.4964 31.1773C52.7426 31.2086 52.9278 31.1924 52.9278 31.4565C52.9278 31.6581 52.7736 31.6742 52.5574 31.6742C52.0029 31.6742 51.4474 31.5805 50.8929 31.5805C50.2453 31.5805 49.5977 31.6742 48.9501 31.6742C48.6578 31.6742 48.4416 31.643 48.4416 31.395C48.4416 31.1612 48.6578 31.131 48.7649 31.131H49.1042C49.3825 31.1461 49.8749 31.131 49.8749 30.6955C49.8749 30.6028 49.8749 30.4476 49.7518 30.122L48.9811 28.0416C48.838 27.6523 48.6948 27.6645 48.5517 27.6682L45.7591 27.6687C45.2817 27.6687 45.3277 27.7776 45.2506 27.9943L44.557 30.0746C44.5109 30.2147 44.4639 30.4163 44.4639 30.5564C44.4639 31.006 44.8653 31.1461 45.605 31.1773C45.9283 31.2086 46.0063 31.2549 46.0063 31.4414C46.0063 31.5493 45.9753 31.6742 45.682 31.6742C45.1575 31.6742 44.618 31.5805 44.0946 31.5805C43.6161 31.5805 43.1387 31.643 42.6602 31.6742C42.5992 31.6742 42.5371 31.6894 42.475 31.6742C42.2288 31.643 42.2138 31.4878 42.2138 31.4414C42.2138 31.2862 42.2288 31.1773 42.7373 31.1612C43.1537 31.1461 43.462 31.1924 43.8783 30.0908L46.8541 22.0646C46.9922 21.7078 47.2395 20.9307 47.2855 20.7916C47.3316 20.6515 47.3626 20.4962 47.5478 20.4962ZM81.7511 20.31V20.4964C81.7797 20.783 82.0966 20.8051 82.2547 20.8067L89.3051 20.8069C89.6745 20.8069 89.7525 20.7444 89.8296 20.4964C89.9067 20.2787 89.9367 20.1235 90.1219 20.1235C90.4151 20.1235 90.3691 20.4964 90.3691 20.6678L90.307 22.1112C90.276 22.8873 90.276 23.2128 90.0298 23.2128C89.7836 23.2128 89.7675 22.9185 89.6905 22.6232C89.5213 22.1112 89.213 21.335 88.4263 21.335H86.5916C86.4224 21.335 86.1912 21.3038 86.1912 21.6455V29.7795C86.1912 31.0223 86.4685 31.1614 87.2392 31.1775C87.5325 31.1926 87.8097 31.1463 87.8097 31.4416C87.8097 31.5495 87.7787 31.6744 87.4854 31.6744C86.8228 31.6744 86.1752 31.5807 85.5126 31.5807C84.85 31.5807 84.1713 31.6744 83.5087 31.6744C83.2155 31.6744 83.1844 31.5495 83.1844 31.4416C83.1844 31.239 83.2775 31.2078 83.4777 31.1926C84.2484 31.1312 84.8039 31.3791 84.8039 29.7795V21.6455C84.8039 21.3552 84.645 21.3357 84.1119 21.3349L83.8941 21.335L83.6637 21.3353C82.6523 21.3395 81.9667 21.4142 81.1345 22.7008C80.9493 22.9961 80.9033 23.2441 80.6721 23.2441C80.564 23.2441 80.4559 23.1513 80.4559 23.0274C80.4559 22.9336 80.4709 22.8248 80.564 22.5143L81.1806 20.434C81.2643 20.1517 81.3993 20.1136 81.481 20.109L81.5039 20.1084C81.5819 20.1084 81.7201 20.1084 81.7511 20.31ZM78.8238 20.8065C78.9319 20.8065 79.1481 20.8226 79.1481 21.0393C79.1481 21.257 78.9629 21.2883 78.8388 21.2883C78.1611 21.3346 77.6367 21.1169 77.6367 22.7014V29.7801C77.6367 31.3787 78.1611 31.1459 78.8548 31.1922C79.055 31.2084 79.1481 31.2396 79.1481 31.4412C79.1481 31.5501 79.117 31.674 78.8238 31.674C78.1922 31.674 77.5746 31.5813 76.943 31.5813L76.4716 31.5958L75.5342 31.6595C75.3776 31.6682 75.2204 31.674 75.0623 31.674C74.9542 31.674 74.739 31.6589 74.739 31.4412C74.739 31.2235 74.9241 31.1922 75.0472 31.1922C75.7249 31.1459 76.2494 31.3636 76.2494 29.7801V23.3999L70.437 29.64V29.9353C70.437 31.0993 70.8685 31.1732 71.3265 31.1825L71.4917 31.1849C71.5467 31.1859 71.6014 31.1878 71.6551 31.1922C71.8553 31.2084 71.9484 31.2396 71.9484 31.4412C71.9484 31.5501 71.9173 31.674 71.6241 31.674L71.1527 31.6595L70.2152 31.5958C70.0586 31.5871 69.9015 31.5813 69.7433 31.5813C69.1117 31.5813 68.4952 31.674 67.8626 31.674C67.7545 31.674 67.5393 31.6589 67.5393 31.4412C67.5393 31.2235 67.7244 31.1922 67.8475 31.1922C68.5252 31.1459 69.0497 31.3636 69.0497 29.7801V22.7014C69.0497 21.1018 68.5252 21.3346 67.8315 21.2883C67.6313 21.2722 67.5393 21.2419 67.5393 21.0393C67.5393 20.9315 67.5703 20.8065 67.8626 20.8065C68.4952 20.8065 69.1117 20.9002 69.7433 20.9002L70.2152 20.8856L71.1527 20.8211C71.3092 20.8123 71.4662 20.8065 71.6241 20.8065C71.7322 20.8065 71.9484 20.8226 71.9484 21.0393C71.9484 21.257 71.7632 21.2883 71.6401 21.2883C70.9614 21.3346 70.437 21.1169 70.437 22.7014V28.7863L76.2494 22.5301V22.4676C76.2494 21.4121 75.8253 21.3203 75.3712 21.3021L75.2573 21.2985C75.1813 21.2965 75.1053 21.2945 75.0312 21.2883C74.831 21.2722 74.739 21.2419 74.739 21.0393C74.739 20.9315 74.769 20.8065 75.0623 20.8065L75.5342 20.8211L76.4716 20.8856C76.6282 20.8944 76.7851 20.9002 76.943 20.9002C77.5746 20.9002 78.1922 20.8065 78.8238 20.8065ZM60.7421 20.8071L61.4245 20.8216L62.7889 20.8853C63.0162 20.894 63.2435 20.8998 63.4707 20.8998L63.945 20.8853L64.8932 20.8216C65.0512 20.8129 65.2093 20.8071 65.3674 20.8071C65.4755 20.8071 65.6907 20.8222 65.6907 21.0399C65.6907 21.2576 65.5066 21.2879 65.3825 21.2879C64.7048 21.3342 64.1803 21.1175 64.1803 22.701V29.7797C64.1803 31.3793 64.7048 31.1465 65.3985 31.1928C65.5987 31.208 65.6907 31.2392 65.6907 31.4408C65.6907 31.5497 65.6607 31.6736 65.3674 31.6736L64.8955 31.6591L63.958 31.5954C63.8015 31.5867 63.6446 31.5809 63.4867 31.5809C62.8541 31.5809 62.2375 31.6736 61.6059 31.6736C61.4978 31.6736 61.2816 31.6585 61.2816 31.4408C61.2816 31.2241 61.4668 31.1928 61.5899 31.1928C62.2686 31.1465 62.793 31.3632 62.793 29.7797L62.7933 22.5454C62.7916 21.7465 62.7024 21.3342 60.634 21.3342H59.0466C57.0206 21.3342 56.9055 21.7245 56.9028 22.4815L56.9031 22.611L56.9032 22.6445L56.9036 29.7797C56.9036 31.3793 57.4281 31.1465 58.1217 31.1928C58.3219 31.208 58.415 31.2392 58.415 31.4408C58.415 31.5497 58.3839 31.6736 58.0907 31.6736C57.4591 31.6736 56.8415 31.5809 56.2099 31.5809L55.7384 31.5954L54.8007 31.6591C54.6441 31.6678 54.4871 31.6736 54.3292 31.6736C54.2211 31.6736 54.0049 31.6585 54.0049 31.4408C54.0049 31.2241 54.19 31.1928 54.3142 31.1928C54.9918 31.1465 55.5163 31.3632 55.5163 29.7797V22.701C55.5163 21.1014 54.9918 21.3342 54.2981 21.2879C54.098 21.2728 54.0049 21.2415 54.0049 21.0399C54.0049 20.9311 54.0359 20.8071 54.3292 20.8071L54.8007 20.8216L55.7384 20.8853C55.895 20.894 56.052 20.8998 56.2099 20.8998C57.1198 20.8998 58.0286 20.8071 58.9545 20.8071H60.7421ZM95.8249 23.0886C95.7478 23.0886 95.7318 23.1663 95.7018 23.2751L94.4216 26.815C94.3755 26.9551 94.3755 27.0166 94.3755 27.0629C94.3755 27.1103 94.4216 27.1405 94.4986 27.1405H97.0891C97.2272 27.1405 97.4124 27.1254 97.2742 26.7686L95.948 23.2751C95.9019 23.1663 95.9019 23.0886 95.8249 23.0886ZM47.0543 23.0886C46.9772 23.0886 46.9612 23.1663 46.9312 23.2751L45.651 26.815C45.605 26.9551 45.605 27.0166 45.605 27.0629C45.605 27.1103 45.651 27.1405 45.7281 27.1405H48.3185C48.4566 27.1405 48.6418 27.1254 48.5037 26.7686L47.1774 23.2751C47.1314 23.1663 47.1314 23.0886 47.0543 23.0886ZM37.251 0.37223C38.1758 0.37223 39.44 0.589944 40.3188 0.946753C40.55 1.04049 40.6121 1.07174 40.6732 1.78535L40.7352 2.48385C40.7663 2.90315 40.7663 3.10474 40.535 3.10474C40.3348 3.10474 40.3349 2.94952 40.0416 2.48385C39.3629 1.31969 38.5462 0.838904 37.1899 0.838904C34.5074 0.838904 32.6877 3.02713 32.6877 6.0086C32.6877 9.45473 34.7847 11.4262 37.1589 11.4262C37.6674 11.4262 38.2379 11.3325 38.7624 10.9918C39.6562 10.4012 40.0105 9.48597 40.3349 8.89532C40.3809 8.80259 40.4419 8.70986 40.5811 8.70986C40.837 8.70986 40.8277 9.0332 40.7914 9.38863L40.7737 9.55389C40.7647 9.6366 40.7562 9.71864 40.7512 9.79642L40.7202 10.3548C40.7042 10.6028 40.7202 10.883 40.0566 11.2085C39.6252 11.4101 38.4691 11.8919 36.9427 11.8919C33.8438 11.8919 31.1463 9.59382 31.1463 6.21019C31.1463 3.13599 33.5816 0.37223 37.251 0.37223ZM62.3453 0.37223C63.2702 0.37223 64.5344 0.589944 65.4132 0.946753C65.6444 1.04049 65.7065 1.07174 65.7675 1.78535L65.8296 2.48385C65.8606 2.90315 65.8606 3.10474 65.6294 3.10474C65.4292 3.10474 65.4292 2.94952 65.1359 2.48385C64.4573 1.31969 63.6405 0.838904 62.2843 0.838904C59.6018 0.838904 57.7821 3.02713 57.7821 6.0086C57.7821 9.45473 59.879 11.4262 62.2532 11.4262C62.7617 11.4262 63.3322 11.3325 63.8557 10.9918C64.7506 10.4012 65.1049 9.48597 65.4292 8.89532C65.4752 8.80259 65.5363 8.70986 65.6754 8.70986C66.0298 8.70986 65.8756 9.32974 65.8446 9.79642L65.8146 10.3548C65.7985 10.6028 65.8146 10.883 65.1509 11.2085C64.7195 11.4101 63.5635 11.8919 62.037 11.8919C58.9382 11.8919 56.2407 9.59382 56.2407 6.21019C56.2407 3.13599 58.6759 0.37223 62.3453 0.37223ZM86.4999 0.838904C86.4999 0.96288 86.4849 1.08686 86.4849 1.31969L86.4689 2.04943C86.4529 2.7943 86.4849 2.82554 86.4689 2.96464C86.4689 3.02713 86.4378 3.19747 86.2997 3.19747C86.1145 3.19747 86.0375 3.01201 85.9754 2.84066C85.498 1.55252 85.1426 1.22595 82.7995 1.22595C81.4272 1.22595 81.3811 1.31969 81.3811 1.84785V4.84343C81.3811 5.09239 81.3661 5.32522 81.8906 5.32522H83.401C84.5421 5.32522 84.7273 4.67309 84.8193 4.31628C84.8814 4.06732 84.9575 3.94334 85.1126 3.94334C85.2357 3.94334 85.3278 4.03607 85.3278 4.23867C85.3278 4.50759 85.3013 4.64567 85.2714 4.7878L85.2575 4.85417C85.1946 5.15857 85.1331 5.56993 85.2818 7.29674C85.3128 7.57594 85.3438 7.84002 85.0966 7.84002C84.8344 7.84002 84.8193 7.56082 84.7112 7.14152C84.5111 6.27167 84.2648 5.85237 82.7995 5.85237H81.7205C81.4039 5.85237 81.3807 6.03528 81.3806 6.20496L81.3811 9.37712L81.3819 9.5255C81.391 10.2476 81.5047 11.0221 82.8465 11.0221H83.9555C85.6521 11.0221 86.0835 10.2147 86.4529 9.22189C86.5309 9.03543 86.592 8.84896 86.7621 8.84896C86.8232 8.84896 86.9463 8.86408 86.9463 9.08179C86.9463 9.5787 86.7772 9.64019 86.654 11.0997C86.592 11.6903 86.4849 11.5815 86.2377 11.5815L84.3259 11.5653C82.6613 11.5502 81.6124 11.4726 80.8727 11.4726L80.3662 11.4871L79.3593 11.5509C79.1911 11.5595 79.0224 11.5653 78.8528 11.5653C78.7447 11.5653 78.4834 11.5653 78.4834 11.3325C78.4834 11.1158 78.6686 11.0846 78.7917 11.0846C79.4694 11.0382 79.9938 11.2549 79.9938 9.67143V2.59271C79.9938 0.993118 79.4694 1.22595 78.7757 1.17959C78.5755 1.16447 78.4834 1.13322 78.4834 0.931634C78.4834 0.822777 78.5135 0.698801 78.8067 0.698801C79.3462 0.698801 79.8707 0.745166 80.4102 0.745166H83.6943C84.2178 0.745166 85.3438 0.729039 85.7442 0.71392C86.4529 0.667555 86.4999 0.667555 86.4999 0.838904ZM108.326 0.388055C108.542 0.388055 108.573 0.574523 108.619 0.729744C108.65 0.838601 108.82 1.33551 108.912 1.56835L112.134 10.0289C112.457 10.8978 112.75 11.0228 113.275 11.0691C113.521 11.1004 113.706 11.0843 113.706 11.3483C113.706 11.5499 113.552 11.566 113.336 11.566C112.781 11.566 112.226 11.4723 111.671 11.4723C111.024 11.4723 110.376 11.566 109.729 11.566C109.436 11.566 109.22 11.5348 109.22 11.2868C109.22 11.053 109.436 11.0228 109.544 11.0228H109.883C110.16 11.0379 110.653 11.0228 110.653 10.5873C110.653 10.4946 110.653 10.3394 110.53 10.0138L109.76 7.93244C109.605 7.51415 109.451 7.56052 109.297 7.56052H106.538C106.06 7.56052 106.106 7.66937 106.029 7.88608L105.336 9.96645C105.288 10.1066 105.242 10.3081 105.242 10.4482C105.242 10.8978 105.644 11.0379 106.383 11.0691C106.707 11.1004 106.784 11.1467 106.784 11.3332C106.784 11.4411 106.754 11.566 106.461 11.566C105.936 11.566 105.397 11.4723 104.873 11.4723C104.395 11.4723 103.917 11.5348 103.439 11.566C103.378 11.566 103.316 11.5812 103.254 11.566C103.007 11.5348 102.992 11.3796 102.992 11.3332C102.992 11.178 103.007 11.0691 103.516 11.053C103.932 11.0379 104.241 11.0843 104.657 9.98258L107.633 1.9564C107.771 1.59858 108.017 0.822474 108.064 0.683379L108.094 0.589607C108.132 0.481954 108.182 0.388055 108.326 0.388055ZM53.9143 0.698196C54.0224 0.698196 54.2386 0.714323 54.2386 0.931029C54.2386 1.14874 54.0534 1.17999 53.9303 1.17999C53.2517 1.22635 52.7272 1.00864 52.7272 2.59311V9.67183C52.7272 11.2704 53.2517 11.0376 53.9453 11.084C54.1455 11.1001 54.2386 11.1313 54.2386 11.3329C54.2386 11.4418 54.2076 11.5657 53.9143 11.5657C53.2827 11.5657 52.6661 11.473 52.0335 11.473C51.4019 11.473 50.7854 11.5657 50.1528 11.5657C50.0447 11.5657 49.8295 11.5506 49.8295 11.3329C49.8295 11.1152 50.0137 11.084 50.1378 11.084C50.8154 11.0376 51.3399 11.2553 51.3399 9.67183V3.29161L45.5275 9.53173V9.82706C45.5275 10.9911 45.9591 11.0649 46.417 11.0742L46.5272 11.0757L46.6371 11.0779C46.6736 11.0791 46.7098 11.081 46.7456 11.084C46.9458 11.1001 47.0389 11.1313 47.0389 11.3329C47.0389 11.4418 47.0079 11.5657 46.7146 11.5657C46.083 11.5657 45.4664 11.473 44.8338 11.473C44.2023 11.473 43.5857 11.5657 42.9531 11.5657C42.845 11.5657 42.6298 11.5506 42.6298 11.3329C42.6298 11.1152 42.815 11.084 42.9381 11.084C43.6157 11.0376 44.1402 11.2553 44.1402 9.67183V2.59311C44.1402 0.993521 43.6157 1.22635 42.9221 1.17999C42.7219 1.16386 42.6298 1.13362 42.6298 0.931029C42.6298 0.82318 42.6608 0.698196 42.9531 0.698196C43.5857 0.698196 44.2023 0.791934 44.8338 0.791934C45.4664 0.791934 46.083 0.698196 46.7146 0.698196C46.8227 0.698196 47.0389 0.714323 47.0389 0.931029C47.0389 1.14874 46.8537 1.17999 46.7306 1.17999C46.052 1.22635 45.5275 1.00864 45.5275 2.59311V8.67801L51.3399 2.42176V2.35927C51.3399 1.30376 50.9158 1.212 50.4618 1.19378L50.3479 1.19024C50.2718 1.18821 50.1958 1.18617 50.1218 1.17999C49.9216 1.16386 49.8295 1.13362 49.8295 0.931029C49.8295 0.82318 49.8595 0.698196 50.1528 0.698196C50.7854 0.698196 51.4019 0.791934 52.0335 0.791934C52.6661 0.791934 53.2827 0.698196 53.9143 0.698196ZM90.8458 0.729644C91.0771 0.729644 91.3233 0.729644 91.5545 0.714525C91.6936 0.714525 91.8168 0.698398 91.9559 0.698398C92.125 0.698398 92.125 0.698398 92.2331 0.977596L95.301 8.70946C95.347 8.83344 95.3781 8.89593 95.4091 8.89593C95.4391 8.89593 95.4711 8.83344 95.5172 8.70946L98.8163 0.899985C98.8623 0.792136 98.8463 0.698398 99.2477 0.698398C99.664 0.698398 99.9874 0.729644 100.327 0.729644C100.681 0.729644 101.051 0.698398 101.422 0.698398C101.714 0.698398 101.745 0.823382 101.745 0.931231C101.745 1.16406 101.637 1.16406 101.19 1.19531C100.45 1.22656 100.265 1.36666 100.296 2.35947L100.558 9.96736C100.589 10.8674 100.82 11.0539 101.437 11.069C101.899 11.1003 101.976 11.1154 101.976 11.3331C101.976 11.441 101.945 11.5659 101.653 11.5659L101.176 11.5513L100.217 11.4869C100.058 11.4781 99.899 11.4722 99.7411 11.4722C99.1085 11.4722 98.492 11.5659 97.8604 11.5659C97.5821 11.5659 97.5211 11.4258 97.5211 11.3331C97.5211 11.1154 97.6902 11.1003 97.8293 11.0842C97.8896 11.0799 97.9503 11.0779 98.011 11.0765L98.1319 11.0741C98.6939 11.0624 99.2097 11.0156 99.1706 9.67204L98.9704 2.40584C98.9704 2.28186 98.9394 2.20425 98.9083 2.20425C98.8773 2.20425 98.8163 2.25162 98.7692 2.3756L95.4711 10.2153C95.2089 10.8362 95.286 10.7122 95.1469 11.0227C95.1158 11.1003 95.0698 11.193 94.9617 11.193C94.8536 11.193 94.8075 11.1003 94.7765 11.0227C94.6994 10.8362 94.6224 10.6346 94.4532 10.2153L91.3233 2.42197C91.2773 2.29799 91.1842 2.32924 91.1842 2.46833L90.8458 9.39183C90.7528 11.2394 91.3233 11.0539 92.1561 11.0842C92.3102 11.0842 92.3873 11.1154 92.4183 11.1466C92.4483 11.1779 92.4794 11.2394 92.4794 11.3331C92.4794 11.441 92.4483 11.5659 92.1561 11.5659L91.7489 11.5513L90.9287 11.4869C90.7923 11.4781 90.6564 11.4722 90.5215 11.4722L90.1402 11.4869L89.3771 11.5513C89.2498 11.5601 89.1225 11.5659 88.9951 11.5659C88.872 11.5659 88.6568 11.5498 88.6568 11.3331C88.6568 11.1305 88.826 11.0842 88.9651 11.0842C89.5967 11.0539 90.0751 11.2555 90.1822 9.60954L90.6917 2.29799C90.7217 1.78495 90.7688 1.22656 90.0591 1.18019C89.8589 1.16406 89.6738 1.18019 89.4736 1.18019C89.1963 1.18019 89.1803 0.993722 89.1803 0.931231C89.1803 0.838501 89.2113 0.698398 89.5046 0.698398C89.936 0.698398 89.8589 0.729644 90.8458 0.729644ZM68.4794 0.201587V0.388055C68.5081 0.674618 68.825 0.696662 68.983 0.698357L76.0335 0.698498C76.4038 0.698498 76.4809 0.636007 76.558 0.388055C76.635 0.170341 76.6651 0.015119 76.8502 0.015119C77.1435 0.015119 77.0975 0.388055 77.0975 0.559404L77.0354 2.00277C77.0044 2.77887 77.0044 3.10444 76.7581 3.10444C76.5119 3.10444 76.4959 2.81012 76.4188 2.5148C76.2497 2.00277 75.9404 1.22666 75.1546 1.22666H73.3199C73.1508 1.22666 72.9196 1.19541 72.9196 1.5371V9.67113C72.9196 10.9139 73.1968 11.053 73.9675 11.0691C74.2608 11.0843 74.5381 11.0379 74.5381 11.3332C74.5381 11.4411 74.507 11.566 74.2148 11.566C73.5512 11.566 72.9036 11.4723 72.2409 11.4723C71.5783 11.4723 70.8997 11.566 70.2371 11.566C69.9438 11.566 69.9128 11.4411 69.9128 11.3332C69.9128 11.1306 70.0059 11.1004 70.206 11.0843C70.9768 11.0228 71.5313 11.2707 71.5313 9.67113V1.5371C71.5313 1.24681 71.3731 1.2273 70.8402 1.22655L70.6224 1.22666C69.4814 1.22666 68.7567 1.21053 67.8629 2.59241C67.6777 2.88773 67.6316 3.13568 67.4004 3.13568C67.2923 3.13568 67.1842 3.04295 67.1842 2.91898C67.1842 2.82524 67.1992 2.71638 67.2923 2.40594L67.9089 0.325563C67.9926 0.0433412 68.1276 0.00518961 68.2094 0.000585374L68.2322 0C68.3093 0 68.4484 0 68.4794 0.201587ZM107.833 2.98046C107.756 2.98046 107.74 3.05807 107.71 3.16693L106.43 6.70679C106.384 6.84589 106.383 6.90838 106.383 6.95475C106.383 7.00212 106.43 7.03236 106.507 7.03236H109.097C109.235 7.03236 109.42 7.01724 109.282 6.65942L107.956 3.16693C107.91 3.05807 107.91 2.98046 107.833 2.98046Z" fill="#686868"/>
<path fill-rule="evenodd" clip-rule="evenodd" d="M24.3836 23.6694C24.3367 23.4566 24.1419 23.3096 23.9256 23.3096H16.8427C16.751 23.3096 16.6733 23.2389 16.6663 23.1466C16.3618 19.051 13.0827 15.7823 9.01478 15.553V8.22979C9.01478 5.69708 10.2935 3.4619 12.2311 2.14939C12.3307 2.08216 12.4608 2.08216 12.5605 2.14989C14.4945 3.45989 15.7718 5.69006 15.7763 8.21725C15.7768 8.44102 15.9297 8.6412 16.148 8.68184C16.2482 8.70041 16.3429 8.68536 16.4246 8.64672H23.7163C23.7746 8.67432 23.8394 8.68987 23.9082 8.68987C24.1603 8.68987 24.3652 8.48366 24.3652 8.22979C24.3652 8.21825 24.3647 8.20721 24.3647 8.19567C24.3647 8.19266 24.3652 8.18965 24.3652 8.18714C24.3652 8.18213 24.3642 8.17761 24.3642 8.17259C24.3338 3.66109 20.6984 0 16.2332 0C14.9012 0 13.6429 0.326121 12.5321 0.903104C12.4464 0.947758 12.3447 0.947758 12.259 0.903104C11.1482 0.326121 9.88987 0 8.5583 0C4.07424 0 0.426392 3.69169 0.426392 8.22979C0.426392 12.6129 3.82906 16.2057 8.10133 16.4465V23.1315C8.10133 23.2299 8.02209 23.3096 7.92392 23.3096H0.882871C0.630213 23.3096 0.426392 23.5183 0.426392 23.7727C0.427887 28.3093 4.07524 32 8.5583 32C9.88987 32 11.1482 31.6739 12.259 31.0964C12.3447 31.0517 12.4464 31.0517 12.5321 31.0964C13.6429 31.6739 14.9012 32 16.2332 32C20.6615 32 24.274 28.3981 24.3627 23.9378C24.3941 23.857 24.4045 23.7652 24.3836 23.6694ZM15.7763 23.7697C15.7763 26.3024 14.4975 28.5376 12.5605 29.8501C12.4608 29.9173 12.3302 29.9173 12.2311 29.8501C10.2935 28.5376 9.01478 26.3024 9.01478 23.7697V16.7962C9.01478 16.6196 9.16777 16.4842 9.34219 16.5032C12.9547 16.9001 15.7763 20.0073 15.7763 23.7697ZM16.2332 0.919661C19.9349 0.919661 22.9942 3.75641 23.4039 7.39592C23.4238 7.57203 23.2887 7.72706 23.1128 7.72706H16.9454C16.7939 7.72706 16.6678 7.61016 16.6538 7.45814C16.446 5.2064 15.3382 3.21505 13.6987 1.85789C13.5238 1.71289 13.5716 1.43092 13.7844 1.35315C14.5493 1.07269 15.3741 0.919661 16.2332 0.919661ZM1.33985 8.22979C1.33985 4.19893 4.57806 0.919661 8.5583 0.919661C9.41744 0.919661 10.2417 1.07269 11.0066 1.35315C11.2189 1.43092 11.2683 1.71289 11.0934 1.85738C9.26844 3.36758 8.10133 5.66347 8.10133 8.22979V15.2033C8.10133 15.3799 7.94834 15.5158 7.77392 15.4963C4.16145 15.0994 1.33985 11.9922 1.33985 8.22979ZM8.5583 31.0798C4.84119 31.0798 1.77191 28.22 1.38221 24.5589C1.36377 24.3833 1.49832 24.2298 1.67374 24.2298H7.84169C7.99418 24.2298 8.12026 24.3472 8.13322 24.5002C8.33156 26.769 9.44286 28.7764 11.0929 30.1421C11.2678 30.2866 11.2194 30.5686 11.0066 30.6463C10.2417 30.9268 9.41744 31.0798 8.5583 31.0798ZM16.2332 31.0798C15.3741 31.0798 14.5493 30.9268 13.7844 30.6463C13.5716 30.5686 13.5238 30.2866 13.6987 30.1421C15.3482 28.7764 16.46 26.769 16.6578 24.5002C16.6713 24.3472 16.7974 24.2298 16.9494 24.2298H23.1178C23.2927 24.2298 23.4278 24.3833 23.4088 24.5589C23.0191 28.22 19.9499 31.0798 16.2332 31.0798Z" fill="#686868"/>
</svg>
