<svg width="86" height="32" xmlns="http://www.w3.org/2000/svg"><g fill="#686868" fill-rule="evenodd"><path d="M48.992 7.749c-.25-.716-.608-.883-1.38-.883h-2.12c-.774 0-1.1.166-1.377.933L37.53 25.262c-.274.74-.082 1.096.747 1.096h1.9c1.376 0 1.737-.22 2.01-1.016l.883-2.578h6.8l.855 2.578c.252.796.663 1.016 2.039 1.016h2.069c.796 0 1.016-.356.745-1.096L48.992 7.75zm-4.74 11.39l1.434-4.28c.661-1.952.648-3.344.648-3.344h.246s.068 1.392.703 3.372l1.432 4.251h-4.464zm23.513-12.27H54.679c-.854 0-1.126.273-1.126 1.122v1.84c0 .823.272 1.1 1.126 1.1h4.326v14.304c0 .847.275 1.123 1.1 1.123h2.232c.855 0 1.133-.276 1.133-1.123V10.931h4.294c.855 0 1.131-.277 1.131-1.1V7.99c0-.849-.275-1.123-1.13-1.123zm11.765 7.163h-4.462V10.85h8.292c.826 0 1.13-.303 1.13-1.127V7.992c0-.852-.303-1.126-1.13-1.126H71.71c-.826 0-1.132.274-1.132 1.126v17.297c0 .822.331 1.07 1.098 1.07h7.853c3.803 0 6.282-2.359 6.282-6.15 0-3.844-2.478-6.177-6.281-6.177zm-.634 8.345h-3.828v-4.365h3.828c1.46 0 2.287.88 2.287 2.196 0 1.294-.827 2.17-2.287 2.17zM26.33.533H5.47C2.6.533.254 2.873.254 5.731v20.79c0 2.86 2.346 5.199 5.214 5.199H26.33c2.868 0 5.216-2.34 5.216-5.198V5.732c0-2.86-2.348-5.199-5.216-5.199zm3.58 25.437a.16.16 0 01-.21.048 26.713 26.713 0 00-13.8-3.814c-5.048 0-9.77 1.393-13.799 3.814a.159.159 0 01-.178-.26l.019-.016c3.643-2.799 6.81-6.339 9.252-10.555A35.961 35.961 0 0015.74 1.929a.162.162 0 01.32 0 35.98 35.98 0 004.546 13.258 36.099 36.099 0 009.252 10.555l.019.015c.065.05.081.144.034.213z"/></g></svg>