<svg width="212" height="25" xmlns="http://www.w3.org/2000/svg"><g fill="#686868" fill-rule="evenodd"><path d="M54.484 7.478h5.95V23h6.376V7.478h5.95V1.736H54.485zM86.36 7.478h9.353V1.736H86.36c-8.591 0-13.179 4.274-13.179 10.632S77.77 23 86.362 23h9.35V17.26h-9.351c-3.976 0-6.59-1.422-6.59-4.89 0-3.47 2.614-4.891 6.59-4.891zM41.518 1.736l-3.4 12.693L34.72 1.736H23.457V23h6.375V5.704L34.464 23h7.31l4.634-17.307V23h6.376V1.736zM8.58 24.276c-5.876 0-8.5-4.717-8.5-9.394 0-3.195 1.08-6.874 2.888-9.845C4.703 2.167 6.807.46 8.58.46c1.77 0 3.872 1.707 5.623 4.577 1.8 2.971 2.878 6.65 2.878 9.845 0 4.677-2.63 9.394-8.501 9.394zM102.089 12.378V1.736h3.083v6.262l3.375-6.262H112v10.642h-3.083V6.116l-3.376 6.262zM120.369 12.378V8.26h-3.439v4.118h-3.082V1.736h3.082v3.902h3.439V1.736h3.082v10.642zM130.094 7.89h-1.788v2.33h1.788c.77 0 1.218-.34 1.218-.957V8.83c0-.586-.447-.94-1.218-.94zm-.139-3.995h-1.65v2.02h1.65c.694 0 1.11-.308 1.11-.878v-.309c0-.524-.416-.833-1.11-.833zm.91 8.483H125.3V1.736h5.718c2.02 0 3.207.91 3.207 2.591 0 1.018-.417 1.974-1.788 2.422 1.496.4 2.035 1.326 2.035 2.468 0 2.005-1.202 3.161-3.607 3.161zM135.857 12.378V1.736h8.077v2.545h-4.994v1.388h3.715v2.468h-3.715v1.696h5.01v2.545zM144.95 7.011c0-4.164 1.897-5.506 5.057-5.506 2.898 0 4.686 1.018 4.948 3.917h-3.16c-.123-1.203-.801-1.45-1.788-1.45-1.08 0-1.897.263-1.897 2.129v1.882c0 1.866.787 2.16 1.897 2.16.971 0 1.634-.294 1.803-1.482h3.16c-.308 2.87-2.065 3.95-4.963 3.95-3.16 0-5.056-1.265-5.056-5.6zM161.876 4.358v8.02h-3.083v-8.02h-3.207V1.736h9.511v2.622zM166.329 12.378V1.736h3.082v6.262l3.377-6.262h3.453v10.642h-3.084V6.116l-3.375 6.262zM181.172 1.736v8.02h3.283v-8.02h3.083v8.02h1.387v4.936h-2.929v-2.314h-7.907V1.736zM190.08 12.378V1.736h3.082v6.262l3.376-6.262h3.453v10.642h-3.083V6.116l-3.376 6.262zM201.839 12.378V1.736h3.083v6.262l3.376-6.262h3.452v10.642h-3.082V6.116l-3.375 6.262z"/></g></svg>