<svg width="40" height="40" viewBox="0 0 40 40" fill="none" xmlns="http://www.w3.org/2000/svg">
<path d="M20 40C31.0457 40 40 31.0457 40 20C40 8.9543 31.0457 0 20 0C8.9543 0 0 8.9543 0 20C0 31.0457 8.9543 40 20 40Z" fill="#686868"/>
<path d="M26.7813 18.8128C26.1586 18.2812 25.4767 17.8596 24.7614 17.5451C25.0421 17.3132 25.3078 17.0579 25.5551 16.7773C28.0773 13.9146 27.7654 9.57985 24.8582 7.09637C23.5374 5.96846 21.9101 5.41669 20.2903 5.41774L10.4167 5.41669V34.5834H29.5831V24.9205C29.5993 22.6614 28.6496 20.4099 26.7813 18.8128ZM25.5176 32.2958H22.0327V22.5735H17.9671V32.2958H14.4823V7.70426H18.5479C20.713 7.70426 22.5318 9.16263 23.0481 11.1356H19.1287V13.4232H23.0459C22.5307 15.3952 20.7151 16.8525 18.5522 16.8546H18.5436H16.8055V19.1421H19.7095C21.0594 19.1411 22.4156 19.6019 23.5159 20.5413C24.8388 21.6713 25.5154 23.262 25.5164 24.8611H25.5185L25.5176 32.2958Z" fill="white"/>
</svg>
