<svg width="134" height="29" xmlns="http://www.w3.org/2000/svg"><g fill="#686868" fill-rule="nonzero"><path d="M18.942 13.193v8.856h-4.054V7.528h3.66V8.93a14.87 14.87 0 014.023-1.7v4.057c-1.21.507-2.76 1.252-3.629 1.906M.22 13.498c0-3.546 1.099-6.267 6.714-6.267a37.66 37.66 0 015.859.52v13.634c0 5.534-3.637 7.015-9.08 7.015-.969-.01-1.936-.092-2.894-.244l.24-3.605a19.43 19.43 0 002.068.151c3.834 0 5.415-.776 5.415-2.943v-.473a9.88 9.88 0 01-3.892.825c-2.87 0-4.43-2.046-4.43-5.38v-3.233zm8.316 3.97V11.11a16.619 16.619 0 00-1.748-.062c-1.955 0-2.308 1.008-2.308 2.415v3.24c0 .977.368 1.59 1.332 1.59a6.171 6.171 0 002.724-.826zM27.729 16.537v.432c0 1.714.683 2.158 2.725 2.158 1.55-.013 3.092-.23 4.584-.645l.66 3.311c-1.826.62-3.743.945-5.674.962-4.896 0-6.754-2.39-6.754-6.064v-3.49c0-3.214 1.456-5.97 6.473-5.97 5.017 0 6.1 2.938 6.1 6.184v3.122h-8.114zm3.916-3.949c0-1.042-.312-1.899-1.87-1.899-1.56 0-2.046.857-2.046 1.9v.64h3.916v-.64zM41 16.545v.432c0 1.715.683 2.16 2.725 2.16 1.55-.014 3.092-.23 4.584-.646l.648 3.314a18.129 18.129 0 01-5.665.95c-4.896 0-6.751-2.391-6.751-6.068v-3.48c0-3.218 1.456-5.976 6.473-5.976 5.017 0 6.1 2.94 6.1 6.188v3.126H41zm3.904-3.952c0-1.043-.312-1.9-1.871-1.9-1.56 0-2.043.857-2.043 1.9v.641h3.904l.01-.641zM58.852 22.05v-9.608c0-.657-.296-1.044-1.03-1.044-.733 0-2.173.537-3.083 1.044v9.607H50.51V7.531h3.144l.44 1.102a14.29 14.29 0 015.698-1.402c2.436 0 3.29 1.85 3.29 4.65V22.05h-4.23zM73.545 12.372L70.8 22.05h-4.563L63.781 7.231h3.86l1.345 8.668 2.484-8.668h4.21l2.454 8.668 1.349-8.668h3.856l-2.455 14.818h-4.56zM84.037 16.722V13.26c0-3.06 1.418-6.03 6.636-6.03 5.217 0 6.635 2.97 6.635 6.03v3.462c0 3.061-1.418 6.033-6.635 6.033-5.218 0-6.636-2.972-6.636-6.033m8.929.12v-3.699c0-1.409-.723-2.204-2.29-2.204-1.567 0-2.293.792-2.293 2.201v3.7c0 1.408.723 2.203 2.293 2.203 1.57 0 2.29-.795 2.29-2.204M102.76 13.193v8.856h-4.055V7.528h3.658V8.93a14.87 14.87 0 014.026-1.7v4.057c-1.21.507-2.76 1.252-3.63 1.906M108.484 22.755V1.504l4.278-.624v21.875h-4.278zm8.52-15.09h4.572l-3.8 7.487 3.979 7.59h-4.574l-3.857-7.577 3.68-7.5zM127.637 22.752a18.308 18.308 0 01-5.183-.888l.676-3.276c1.399.434 2.85.66 4.31.672 1.257 0 1.476-.367 1.476-1.255 0-.952-.027-1.072-2.315-1.655-3.46-.884-3.781-1.867-3.781-4.65 0-3.153 1.18-4.47 5.452-4.47 1.46.006 2.914.17 4.34.49l-.416 3.428a22.942 22.942 0 00-3.927-.428c-1.23 0-1.526.339-1.526 1.01 0 .925.118 1.042 1.818 1.44 4.077.95 4.37 1.868 4.37 4.839 0 3.06-1.231 4.746-5.314 4.746"/></g></svg>