<svg width="155" height="30" xmlns="http://www.w3.org/2000/svg"><g fill="#686868" fill-rule="evenodd"><path d="M9.77 2.285H8.327c-2.179 0-4.287 1.44-4.287 5.623 0 4.041 1.933 5.342 4.287 5.342H9.77V2.285zM7.52 15.499l-4.287 9.63H.105l4.71-10.298C2.6 13.707 1.122 11.668 1.122 7.908 1.123 2.636 4.463 0 8.434 0h4.042v25.129H9.769v-9.63H7.52zM65.056 16.272c0-5.553 2.145-9.102 6.292-9.102 1.581 0 2.495.422 3.268.913l-.386 2.602c-.739-.634-1.793-1.23-2.918-1.23-1.968 0-3.373 2.213-3.373 6.677 0 4.428 1.054 6.959 3.268 6.959 1.335 0 2.355-.527 2.987-1.09l.633 2.038c-.949.808-2.074 1.336-3.69 1.336-3.796 0-6.08-3.057-6.08-9.103zm-8.013.035v8.822h-2.741V7.415h2.741v8.19l4.253-8.19h2.777l-4.394 8.33 5.026 9.384h-2.987l-4.675-8.822zm-12.898-1.651h4.534c0-3.023-.492-5.237-2.074-5.237-1.687 0-2.284 2.073-2.46 5.237zm3.023 10.719c-3.655 0-5.905-2.917-5.905-8.364 0-5.694 1.582-9.841 5.342-9.841 2.953 0 4.886 2.214 4.886 8.223v1.512H44.11c0 4.007 1.125 6.115 3.304 6.115 1.546 0 2.776-.702 3.48-1.194l.632 2.107c-1.125.88-2.601 1.442-4.358 1.442zM35.499 9.63h-3.057v.316c0 3.726-.176 9.173-1.652 12.933h4.71V9.63zm4.112 18.978h-2.46v-3.48H29.56v3.48H27.1V22.88h1.09c1.616-3.76 1.792-9.243 1.792-13.952V7.415h8.224V22.88h1.405v5.73zM25.518 7.415V25.13h-2.706v-7.943h-4.077v7.943h-2.741V7.415h2.741v7.521h4.077v-7.52h2.706zM91.606 1.44H86.16c-.106 6.362-.282 11.212-.563 14.832-.316 3.76-.879 6.256-1.827 7.416h7.837V1.441zM93.47 25.13H82.715l-.247 4.182h-1.37v-5.623h.738c1.23-1.02 1.827-3.83 2.179-7.416.351-3.725.456-9.278.562-16.272h8.786v23.688h1.723v5.623h-1.372l-.245-4.182zM98.497 15.252h6.433c.28-4.708-1.125-6.817-2.917-6.817-1.863 0-3.375 2.39-3.516 6.817zm3.867 8.787c2.354 0 3.584-1.897 3.584-1.897l.528 1.334s-1.336 2.004-4.147 2.004c-3.76 0-5.483-3.41-5.483-9.208 0-5.799 2.179-9.208 5.167-9.208 3.057 0 5.025 3.199 4.463 9.49h-8.013c.07 4.85 1.335 7.485 3.9 7.485zM117.303 16.589h-6.045v8.54h-1.652V7.415h1.652v7.837h6.045V7.415h1.651V25.13h-1.651v-8.54M124.51 15.288v8.54h1.055c2.495 0 4.182-1.229 4.182-4.287 0-2.987-1.476-4.253-4.007-4.253h-1.23zm-1.65-7.873h1.65v6.573h1.302c3.373 0 5.552 1.827 5.552 5.518 0 3.76-2.32 5.623-5.658 5.623h-2.846V7.415zM135.83 8.787v16.342h-1.617V7.415h7.486v1.372h-5.87M152.491 12.793c0-.914.07-1.687.141-2.425h-.106a15.717 15.717 0 01-.948 2.284l-5.764 12.477h-1.406V7.415h1.547v12.301c0 .949-.072 1.722-.14 2.495h.104c.246-.807.597-1.58.949-2.354l5.764-12.442h1.44V25.13h-1.58V12.793"/></g></svg>