<svg width="174" height="32" xmlns="http://www.w3.org/2000/svg"><g fill="#686868" fill-rule="nonzero"><path d="M22.722.32c.654.279 1.286.6 1.893.96L9.926 9.76 3.061 5.808a16.39 16.39 0 011.142-1.415l5.723 3.289L22.722.319zm3.447 2.006a16.4 16.4 0 011.446 1.238L9.926 13.74 1.352 8.809c.24-.55.51-1.084.806-1.6l7.768 4.464 16.243-9.347zm2.674 2.555c.386.463.747.948 1.081 1.452L9.926 17.826.283 12.28c.116-.615.267-1.217.45-1.806l9.193 5.286L28.843 4.88zm1.97 2.965a16.241 16.241 0 011.81 7.477c0 9.008-7.303 16.31-16.312 16.31C7.303 31.634 0 24.332 0 15.324c0-.375.013-.746.037-1.114l9.889 5.696L30.812 7.846zM53.991 25.674c2.725 0 4.282-.417 5.755-.973l-.695-2.336c-1.306.417-2.724.695-4.587.695-4.365 0-7.812-2.335-7.812-7.7 0-5.255 3.336-7.423 7.284-7.396 2.224 0 3.364.362 4.92.862l.862-2.28c-1.223-.583-2.946-1.14-5.838-1.14-6.45 0-10.286 4.032-10.286 10.231 0 6.033 3.697 10.037 10.397 10.037zm14.68-.084c4.197 0 7.339-2.419 7.339-7.84 0-4.615-2.308-6.422-5.95-6.422-2.14 0-3.892.668-5.17 1.363.166-1.335.528-3.114 1.334-3.893.917-.89 4.67-1.556 8.896-2.28l-.473-2.612c-4.754.89-8.84 1.862-10.37 3.308-1.75 1.64-2.335 6.533-2.335 9.647 0 6.116 2.558 8.73 6.728 8.73zm.222-2.335c-2.78 0-4.143-2.113-4.143-6.644 0-.5.028-1.224.056-1.724 1.362-.695 2.752-1.307 4.504-1.307 2.752 0 3.78 1.863 3.78 4.282 0 2.613-.917 5.393-4.197 5.393zm16.986 2.419c1.974 0 3.78-.334 5.115-.834l-.5-2.252c-1.501.444-2.725.667-4.17.667-2.67 0-4.949-.806-4.977-4.81h9.98v-1.028c0-4.949-1.778-7.645-6.032-7.645-3.809 0-6.867 2.251-6.867 8.256 0 5.866 2.92 7.646 7.451 7.646zm-4.448-9.258c.194-2.975 1.696-4.448 3.697-4.448 2.224 0 3.197 1.751 3.197 4.448h-6.894zm13.094 15.04h2.891v-6.033c.668.084 1.696.223 2.641.223 4.087 0 7.757-2.085 7.757-8.285 0-5.06-2.447-7.562-6.033-7.562-1.863 0-3.058.64-4.365 1.557v-1.195h-2.891v21.295zm5.477-8.146c-1.029 0-2.224-.222-2.586-.278v-9.619c.779-.417 1.974-1.14 3.559-1.14 2.919 0 3.892 2.475 3.892 5.227 0 3.392-1.39 5.81-4.865 5.81zm17.32 2.28c4.198 0 7.34-2.419 7.34-7.84 0-4.615-2.308-6.422-5.95-6.422-2.14 0-3.892.668-5.171 1.363.167-1.335.528-3.114 1.334-3.893.918-.89 4.67-1.556 8.896-2.28l-.472-2.612c-4.754.89-8.84 1.862-10.37 3.308-1.751 1.64-2.335 6.533-2.335 9.647 0 6.116 2.558 8.73 6.728 8.73zm.222-2.335c-2.78 0-4.142-2.113-4.142-6.644 0-.5.028-1.224.055-1.724 1.363-.695 2.753-1.307 4.504-1.307 2.752 0 3.781 1.863 3.781 4.282 0 2.613-.917 5.393-4.198 5.393zm13.928 2.335c2.419 0 3.976-1.195 4.921-1.918.278 1.362 1.807 1.835 3.364 1.835.195 0 .5-.028.695-.056l.111-2.224c-.778-.028-1.584-.222-1.584-1.168v-7.923c0-3.086-2.002-4.364-5.644-4.364-2.224 0-3.92.444-5.338 1.028l.612 2.196c1.306-.444 2.64-.722 4.253-.722 2.224 0 3.28.556 3.28 2.64v1.64l-3.307.057c-2.642.027-6.033.806-6.033 4.642 0 2.808 1.862 4.337 4.67 4.337zm.75-2.307c-1.473 0-2.585-.695-2.585-2.224 0-1.557 1.196-2.447 3.28-2.502l3.226-.14v3.503c-1.084.695-2.558 1.363-3.92 1.363zm11.121 2.057h2.92v-6.45h7.144v6.45h2.92V10.16h-2.92v6.423h-7.145V10.16h-2.919V25.34zm29.441.25l.5-2.168c-1.223-.334-2.446-1.224-3.78-2.753l-2.891-3.336 6.06-7.172h-3.28l-5.922 7.395 4.198 5.17c2.002 2.447 3.697 2.78 5.115 2.864zm-12.343-.25h2.919V10.16h-2.92v15.18z"/></g></svg>