<svg width="52" height="52" viewBox="0 0 52 52" fill="none" xmlns="http://www.w3.org/2000/svg">
<rect width="52" height="52" fill="white"/>
<mask id="mask0_245_620" style="mask-type:alpha" maskUnits="userSpaceOnUse" x="10" y="10" width="32" height="32">
<rect x="10" y="10" width="32" height="32" fill="#D9D9D9"/>
</mask>
<g mask="url(#mask0_245_620)">
<path d="M17.9987 36.6673C17.2654 36.6673 16.6378 36.4064 16.116 35.8847C15.5934 35.362 15.332 34.734 15.332 34.0007V30.0007H17.9987V33.5007C17.9987 33.7768 18.2226 34.0007 18.4987 34.0007H33.4987C33.7748 34.0007 33.9987 33.7768 33.9987 33.5007V30.0007H36.6654V34.0007C36.6654 34.734 36.4045 35.362 35.8827 35.8847C35.36 36.4064 34.732 36.6673 33.9987 36.6673H17.9987ZM25.9987 31.334L19.332 24.6673L21.1987 22.734L24.6654 26.2007V16.6673C24.6654 15.9309 25.2623 15.334 25.9987 15.334V15.334C26.7351 15.334 27.332 15.9309 27.332 16.6673V26.2007L30.7987 22.734L32.6654 24.6673L25.9987 31.334Z" fill="#686868"/>
</g>
</svg>
