<svg width="52" height="52" viewBox="0 0 52 52" fill="none" xmlns="http://www.w3.org/2000/svg">
<rect width="52" height="52" fill="white"/>
<path d="M21.2867 37.3796C19.9682 37.3796 18.6794 36.9886 17.5831 36.2561C16.4869 35.5237 15.6324 34.4826 15.1278 33.2646C14.6231 32.0465 14.491 30.7062 14.7481 29.413C15.0052 28.1199 15.6399 26.932 16.572 25.9996L19.4 23.1702L21.2854 25.0556L18.4574 27.8836C17.7072 28.6338 17.2857 29.6513 17.2857 30.7122C17.2857 31.7732 17.7072 32.7907 18.4574 33.5409C19.2076 34.2911 20.2251 34.7126 21.286 34.7126C22.347 34.7126 23.3645 34.2911 24.1147 33.5409L26.9414 30.7129L28.828 32.5996L26 35.4276C25.3822 36.0484 24.6474 36.5406 23.8382 36.8757C23.0289 37.2107 22.1612 37.382 21.2854 37.3796L21.2867 37.3796ZM32.6014 28.8276L30.7147 26.9422L33.5414 24.1142C33.9235 23.7453 34.2283 23.304 34.4381 22.8161C34.6478 22.3281 34.7583 21.8032 34.763 21.2721C34.7678 20.741 34.6667 20.2143 34.4657 19.7226C34.2647 19.231 33.9678 18.7843 33.5923 18.4087C33.2168 18.033 32.7703 17.7359 32.2787 17.5347C31.7872 17.3334 31.2605 17.2321 30.7294 17.2366C30.1983 17.2411 29.6734 17.3513 29.1853 17.5608C28.6972 17.7703 28.2558 18.075 27.8867 18.4569L25.0574 21.2849L23.172 19.3996L26 16.5702C27.2556 15.3462 28.9429 14.6662 30.6963 14.6774C32.4498 14.6887 34.1282 15.3903 35.368 16.6303C36.6078 17.8702 37.3092 19.5488 37.3202 21.3022C37.3311 23.0556 36.6509 24.7428 35.4267 25.9982L32.6 28.8262L32.6 28.8276L32.6014 28.8276Z" fill="#686868"/>
<path d="M28.7707 21.2455L21.2293 28.788C20.7087 29.3087 20.7087 30.1528 21.2293 30.6734C21.75 31.194 22.5941 31.194 23.1147 30.6734L26.8847 26.9035L30.6567 23.1314C31.1777 22.6105 31.1775 21.7658 30.6564 21.2451C30.1355 20.7246 29.2914 20.7248 28.7707 21.2455Z" fill="#686868"/>
</svg>
