<?xml version="1.0" encoding="UTF-8"?>
<svg viewBox="0 0 28 28" version="1.1" xmlns="http://www.w3.org/2000/svg" xmlns:xlink="http://www.w3.org/1999/xlink">
    <title>3C21295D-A084-4621-9D2F-C14B670F32E0</title>
    <g id="Desktop" stroke="none" stroke-width="1" fill="none" fill-rule="evenodd">
        <g id="UI" transform="translate(-388.000000, -677.000000)" fill="#000000">
            <g id="Group-2" transform="translate(0.000000, 599.000000)">
                <g id="TG" transform="translate(370.000000, 60.000000)">
                    <path d="M32,18 C39.7319865,18 46,24.2680135 46,32 C46,39.7319865 39.7319865,46 32,46 C24.2680135,46 18,39.7319865 18,32 C18,24.2680135 24.2680135,18 32,18 Z M38.6763006,27.1040462 C38.7976879,25.7283237 37.3410405,26.2947977 37.3410405,26.2947977 C32.9306358,28.1156069 27.9537572,30.0578035 23.9075145,31.9595376 C22.2485549,32.566474 23.2196532,33.1734104 23.2196532,33.1734104 L23.2196532,33.1734104 L25.849711,33.982659 C27.0635838,34.3468208 27.7109827,33.9421965 27.7109827,33.9421965 L27.7109827,33.9421965 L33.3757225,30.0982659 C35.3988439,28.7225434 34.9132948,29.8554913 34.4277457,30.3410405 L34.4277457,30.3410405 L30.1791908,34.3872832 C29.5317919,34.9537572 29.8554913,35.4393064 30.1387283,35.6820809 C30.5,36 31.0986788,36.4366226 31.7264805,36.8721393 L32.10499,37.1323581 C33.1147812,37.8208092 34.0924855,38.4450867 34.1849711,38.5144509 C34.3872832,38.6763006 35.4797688,39.4046243 36.2080925,39.2427746 C36.9364162,39.0809249 37.017341,38.150289 37.017341,38.150289 L37.017341,38.150289 L37.9884393,31.7976879 C38.2716763,29.6531792 38.6358382,27.6705202 38.6763006,27.1040462 Z" id="Icon_tg"></path>
                </g>
            </g>
        </g>
    </g>
</svg>