<?xml version="1.0" encoding="UTF-8"?>
<svg  viewBox="0 0 28 17" version="1.1" xmlns="http://www.w3.org/2000/svg" xmlns:xlink="http://www.w3.org/1999/xlink">
    <title>5EAF465E-E869-482C-A306-06FC2E80882A</title>
    <g id="Desktop" stroke="none" stroke-width="1" fill="none" fill-rule="evenodd">
        <g id="UI" transform="translate(-178.000000, -683.000000)" fill="#000000">
            <g id="Group-2" transform="translate(0.000000, 599.000000)">
                <g id="VK" transform="translate(160.000000, 60.000000)">
                    <path d="M19.0502619,24 L22.1134601,24 C22.8963222,24 23.190847,24.3502895 23.4844094,25.2174684 C24.9825835,29.6789842 27.5086196,33.5780684 28.547069,33.5780684 C28.9364437,33.5780684 29.1151186,33.3947368 29.1151186,32.3836842 L29.1151186,27.7720316 C29.0447687,26.4593632 28.5962439,25.8916526 28.2640066,25.4712158 C28.0588192,25.2114737 27.8979943,25.0080105 27.8979943,24.7198158 C27.8979943,24.3695263 28.1907692,24 28.6774439,24 L33.4910786,24 C34.1402407,24 34.3662531,24.3548526 34.3662531,25.1511684 L34.3662531,31.3551842 C34.3662531,32.0186316 34.6480905,32.2509053 34.8427778,32.2509053 C35.2322401,32.2509053 35.5567774,32.0186316 36.270777,31.2887947 C38.4775258,28.7673368 40.0351999,24.8856105 40.0351999,24.8856105 C40.2299748,24.4212421 40.5890746,24 41.3679116,24 L44.4311099,24 C45.3574718,24 45.5521592,24.4875421 45.3574718,25.1511684 C44.9680095,26.9758053 41.2359617,32.3504895 41.2359617,32.3504895 C40.9114244,32.8812474 40.7816619,33.1467158 41.2359617,33.7438632 C41.3959991,33.9729158 41.7373364,34.3147947 42.1280237,34.7059737 C42.5296484,35.1081579 42.9834232,35.5625947 43.3454105,35.9999421 C44.6612347,37.5132105 45.6528717,38.7899105 45.929109,39.6697947 C46.1815463,40.5526316 45.7439591,41 44.8686971,41 L41.8054989,41 C40.9850118,41 40.5719246,40.5301737 39.6791626,39.5149158 C39.3007253,39.0845474 38.8361881,38.5562053 38.2179134,37.9241632 C36.4005395,36.1326316 35.6217024,35.9003579 35.1673152,35.9003579 C34.5507905,35.9003579 34.3663406,36.0789474 34.3663406,36.9736842 L34.3663406,39.7820842 C34.3663406,40.5526316 34.1254533,41 32.1783169,41 C28.9330312,41 25.3667083,38.9857684 22.8354222,35.2700158 C19.0385019,29.8290316 18,25.7151211 18,24.8856105 C18,24.4212421 18.1750524,24 19.0502619,24 Z" id="Icon_vk"></path>
                </g>
            </g>
        </g>
    </g>
</svg>