<?xml version="1.0" encoding="UTF-8"?>
<svg viewBox="0 0 26 26" version="1.1" xmlns="http://www.w3.org/2000/svg" xmlns:xlink="http://www.w3.org/1999/xlink">
    <title>66FAE081-E14B-4CB5-AB3D-862866B0BF7B</title>
    <g id="Desktop" stroke="none" stroke-width="1" fill="none" fill-rule="evenodd">
        <g id="UI" transform="translate(-459.000000, -678.000000)" fill="#000000">
            <g id="Group-2" transform="translate(0.000000, 599.000000)">
                <g id="Group-8" transform="translate(440.000000, 60.000000)">
                    <path d="M32.0545578,19.0000451 C35.4915897,18.9909699 38.7892456,20.3515785 41.2115564,22.7782565 C43.6468232,25.1913824 45.0109298,28.4737324 44.999934,31.8937921 C44.9973844,38.9973123 39.1892203,44.7769918 32.0545578,44.7769918 L32.0545578,44.7769918 C29.8875902,44.7769816 27.7606975,44.237721 25.8627831,43.2085217 L25.8627831,43.2085217 L19,45 L20.836738,38.3233458 C19.7016589,36.3650283 19.10558,34.1434401 19.1086276,31.8826726 C19.1111105,24.7791524 24.9186538,19.0000451 32.0545578,19.0000451 Z M27.4698512,25.924463 C27.1383884,25.9330852 26.8256087,26.0790953 26.6070375,26.3272368 C26.3109496,26.6497028 25.475448,27.4280693 25.475448,29.0126009 C25.475448,30.5971325 26.6343496,32.1279198 26.7957392,32.3428972 C26.9571288,32.5578746 29.0769194,35.8090988 32.32023,37.2039808 C32.9225717,37.462488 33.5381497,37.6893096 34.1644167,37.883507 C34.9390868,38.1306075 35.6442353,38.0941602 36.2016502,38.0113815 C36.8223795,37.9187189 38.1153587,37.2323974 38.3853759,36.4805942 C38.6553931,35.7287911 38.6547724,35.0838589 38.5715947,34.949807 C38.488417,34.815755 38.2798519,34.7416248 37.956452,34.5803918 L37.956452,34.5779208 C37.633052,34.4166877 36.0427435,33.6383213 35.7460349,33.5277439 C35.4493263,33.4171664 35.2339333,33.3665108 35.0185402,33.6889769 C34.8031471,34.011443 34.1830386,34.7360651 33.9943369,34.9510425 C33.8056352,35.1660198 33.6169335,35.1925831 33.2935335,35.0313501 C32.9701335,34.8701171 31.927929,34.5303539 30.692057,33.4338457 C29.7305473,32.5801136 29.0781608,31.5262302 28.8919421,31.2037641 C28.7057233,30.881298 28.8720787,30.7095632 29.0340891,30.5464769 C29.1793397,30.4025409 29.357489,30.1708843 29.5188786,29.9824702 C29.6157124,29.8694217 29.6741106,29.776166 29.7285312,29.6732141 L29.8422786,29.4456444 L29.8422786,29.4456444 C29.9496648,29.230667 29.8962821,29.0428707 29.8155872,28.8816377 C29.7728665,28.796279 29.5713056,28.3120027 29.3510883,27.7795117 L29.2030512,27.4212233 C29.055327,27.0634892 28.9131564,26.7189636 28.8180753,26.4915586 C28.5555068,25.8639234 28.2892139,25.9485553 28.0905805,25.9355825 C27.9043617,25.9263163 27.685865,25.924463 27.4698512,25.924463 Z" id="Icon_wa"></path>
                </g>
            </g>
        </g>
    </g>
</svg>