<?xml version="1.0" encoding="UTF-8"?>
<svg width="15px" height="12px" viewBox="0 0 15 12" version="1.1" xmlns="http://www.w3.org/2000/svg" xmlns:xlink="http://www.w3.org/1999/xlink">
    <title>long round arrow right</title>
    <g id="Desktop" stroke="none" stroke-width="1" fill="none" fill-rule="evenodd">
        <g id="10" transform="translate(-352.000000, -844.000000)" fill="#000000" fill-rule="nonzero">
            <g id="Group-4" transform="translate(160.000000, 820.000000)">
                <g id="long-round-arrow-right" transform="translate(192.000000, 24.000000)">
                    <g id="Group" transform="translate(7.500000, 6.000000) scale(-1, 1) translate(-7.500000, -6.000000) ">
                        <path d="M0.313440658,6.76592872 L5.16884653,11.6828826 C5.58658025,12.1057058 6.26408744,12.1057058 6.68125972,11.6828826 C7.09899342,11.260249 7.09899342,10.5741801 6.68125972,10.1511674 L3.65175445,7.08318826 L13.9303996,7.08318826 C14.5210661,7.08318826 15,6.5982019 15,6.00007108 C15,5.40194024 14.5210661,4.91695392 13.9303996,4.91695392 L3.65175445,4.91695392 L6.68144688,1.84897481 C7.09918058,1.42634116 7.09918058,0.740082681 6.68144688,0.317259515 C6.47276716,0.105942694 6.19876977,0 5.9251467,0 C5.65152362,0 5.37752624,0.105942694 5.16884653,0.317259515 L0.313440658,5.23421343 C-0.104480219,5.6570366 -0.104480219,6.34291603 0.313440658,6.76592872 L0.313440658,6.76592872 Z" id="Shape"></path>
                    </g>
                </g>
            </g>
        </g>
    </g>
</svg>