<svg width="64px" height="64px" viewBox="0 0 64 64" version="1.1" xmlns="http://www.w3.org/2000/svg"
	 xmlns:xlink="http://www.w3.org/1999/xlink">
	<g id="Вакансии" stroke="none" stroke-width="1" fill="none" fill-rule="evenodd">
		<g id="12.-Сareers" transform="translate(-986.000000, -1571.000000)">
			<g id="Актуальные-вакансии" transform="translate(160.000000, 1088.000000)">
				<g id="Преимущества" transform="translate(0.000000, 482.000000)">
					<g id="преимущество_3" transform="translate(826.000000, 0.000000)">
						<g id="award" transform="translate(0.000000, 1.000000)">
							<rect id="Rectangle-Copy-2" fill="#F0F0F0" x="0" y="0" width="64"
								  height="64" rx="32"></rect>
							<path fill="#000000" fill-rule="nonzero"
								  d="M32.5,15 C38.9433221,15 44.1666667,20.2233446 44.1666667,26.6666667 C44.1666667,30.4429513 42.372518,33.80019 39.5901371,35.9324664 L41.2373317,48.3498624 C41.3979452,49.5604372 40.0885161,50.4204707 39.0413604,49.7921772 L39.0413604,49.7921772 L32.5,45.867361 L25.9586396,49.7921772 C24.9114007,50.4205206 23.6018963,49.5603035 23.7626958,48.3496555 L23.7626958,48.3496555 L25.411846,35.9339858 C22.6283346,33.8017851 20.8333333,30.4438484 20.8333333,26.6666667 C20.8333333,20.2233446 26.0566779,15 32.5,15 Z M32.5,38.3333333 C30.9610468,38.3333333 29.4916894,38.0353583 28.1464749,37.4939555 L27.0523137,45.7345841 L31.7496937,42.9161562 C32.2115222,42.6390591 32.7884778,42.6390591 33.2503063,42.9161562 L33.2503063,42.9161562 L37.9481608,45.7348689 L36.8550496,37.4933418 C35.5094208,38.0351332 34.0395346,38.3333333 32.5,38.3333333 Z M32.5,17.9166667 C27.6675084,17.9166667 23.75,21.8341751 23.75,26.6666667 C23.75,31.4991582 27.6675084,35.4166667 32.5,35.4166667 C34.2027377,35.4166667 35.7918785,34.9303007 37.1360765,34.0889146 C37.1998855,34.0374318 37.2695299,33.9922977 37.3431689,33.9531979 C39.6987698,32.3861872 41.25,29.7075815 41.25,26.6666667 C41.25,21.8341751 37.3324916,17.9166667 32.5,17.9166667 Z"></path>
						</g>
					</g>
				</g>
			</g>
		</g>
	</g>
</svg>
