<?xml version="1.0" encoding="UTF-8"?>
<svg width="32px" height="32px" viewBox="0 0 32 32" version="1.1" xmlns="http://www.w3.org/2000/svg" xmlns:xlink="http://www.w3.org/1999/xlink">
    <title>9EE6400F-F965-48D6-8717-6F858E9E1F04</title>
    <g id="Page-1" stroke="none" stroke-width="1" fill="none" fill-rule="evenodd">
        <g id="3" transform="translate(-1368.000000, -368.000000)" fill-rule="nonzero">
            <g id="Вопрос_3" transform="translate(160.000000, 248.000000)">
                <g id="Group-2" transform="translate(0.000000, 88.000000)">
                    <g id="check" transform="translate(1208.000000, 32.000000)">
                        <path d="M16,0 C7.17724612,0 0,7.17724612 0,16 C0,24.8227539 7.17724612,32 16,32 C24.8227539,32 32,24.8227539 32,16 C32,7.17724612 24.8227539,0 16,0 Z" id="Path" fill="#4C9A68"></path>
                        <path d="M24.109375,12.609375 L15.4426269,21.2758789 C15.1826172,21.5358887 14.8413086,21.6667481 14.5,21.6667481 C14.1586914,21.6667481 13.8173828,21.5358887 13.5573731,21.2758789 L9.22412113,16.9426269 C8.70263675,16.4213868 8.70263675,15.5786133 9.22412113,15.0573731 C9.74536131,14.5358887 10.5878906,14.5358887 11.109375,15.0573731 L14.5,18.4479981 L22.2241211,10.7241211 C22.7453613,10.2026367 23.5878906,10.2026367 24.109375,10.7241211 C24.6306153,11.2453613 24.6306153,12.0878906 24.109375,12.609375 Z" id="Path" fill="#FFFFFF"></path>
                    </g>
                </g>
            </g>
        </g>
    </g>
</svg>