<?xml version="1.0" encoding="UTF-8"?>
<svg width="36px" height="32px" viewBox="0 0 36 32" version="1.1" xmlns="http://www.w3.org/2000/svg" xmlns:xlink="http://www.w3.org/1999/xlink">
    <defs>
        <linearGradient x1="26.6473521%" y1="40.2697056%" x2="86.285541%" y2="89.2476081%" id="linearGradient-1">
            <stop stop-color="#212121" stop-opacity="0.2" offset="0%"></stop>
            <stop stop-color="#212121" stop-opacity="0" offset="100%"></stop>
        </linearGradient>
        <radialGradient cx="2.46460888%" cy="1.75606234%" fx="2.46460888%" fy="1.75606234%" r="144.472757%" gradientTransform="translate(0.024646,0.017561),scale(0.863603,1.000000),translate(-0.024646,-0.017561)" id="radialGradient-2">
            <stop stop-color="#FFFFFF" stop-opacity="0.1" offset="0%"></stop>
            <stop stop-color="#FFFFFF" stop-opacity="0" offset="100%"></stop>
        </radialGradient>
    </defs>
    <g id="Page-1" stroke="none" stroke-width="1" fill="none" fill-rule="evenodd">
        <g id="8.4-Speed" transform="translate(-160.000000, -1611.000000)" fill-rule="nonzero">
            <g id="КЕЙСЫ" transform="translate(156.000000, 1044.000000)">
                <g id="pagespeed" transform="translate(4.000000, 567.000000)">
                    <g id="google-pagespeed-insights">
                        <path d="M35.964396,4.90945055 L35.964396,28.6035165 C35.964396,29.2533261 35.706945,29.8766601 35.2477076,30.3363921 C34.7884701,30.7961242 34.165414,31.0545954 33.5156044,31.0549454 L2.45934066,31.0549454 C1.10669678,31.0556738 0.00936791318,29.9601158 0.00791208791,28.6074725 L0.00791208791,4.90945055 L35.964396,4.90945055 Z" id="Path" fill="#E1E1E1"></path>
                        <path d="M2.45934066,0 L33.5142857,0 C34.8664148,0 35.9629401,1.09534427 35.9643956,2.44747253 L35.9643956,4.90945055 L0.00923041366,4.90945055 L0.00923041366,2.45142857 C0.00923041366,1.801619 0.266681334,1.17828497 0.725918789,0.718552917 C1.18515624,0.25882086 1.8082124,0.00034964193 2.45802198,0 L2.45934066,0 Z" id="Path" fill="#C2C2C2"></path>
                        <path d="M33.5142857,0 L2.45934066,0 C1.1074725,0.00434668459 0.0128500558,1.09955827 0.00923076923,2.45142857 L0.00923076923,2.64659341 C0.0171835325,1.29781364 1.11054436,0.207395119 2.45934066,0.203076923 L33.5142857,0.203076923 C34.8661539,0.207423608 35.9607763,1.3026352 35.964396,2.65450549 L35.964396,2.45934066 C35.9651295,1.10438187 34.8692377,0.0043612572 33.5142857,0 Z" id="Path" fill-opacity="0.2" fill="#FFFFFF"></path>
                        <polygon id="Path" fill-opacity="0.1" fill="#212121" points="0.00923076923 4.90945055 35.9643956 4.90945055 35.9643956 5.10461538 0.00923076923 5.10461538"></polygon>
                        <path d="M17.9736264,12.2584615 C10.7635793,12.2584615 4.91868132,18.1033595 4.91868132,25.3134066 L4.91868132,25.3305495 C4.91868132,25.6048352 4.90285714,25.9424176 4.91868132,26.1481319 L10.621978,26.1481319 C10.6065687,25.8758222 10.6065687,25.6028591 10.621978,25.3305495 C10.625842,22.6662205 12.0694071,20.2120329 14.3961905,18.9140565 C16.722974,17.6160801 19.5695863,17.6770285 21.8386813,19.0734066 L25.9424176,14.9696703 C23.6593041,13.2080205 20.8560565,12.2539701 17.9723077,12.257135 L17.9736264,12.2584615 Z" id="Path" fill="#4285F4"></path>
                        <path d="M25.9424176,14.9617582 L21.836044,19.0681319 C24.0107056,20.4042893 25.3365451,22.7729295 25.3384615,25.3252747 C25.3538709,25.5975844 25.3538709,25.8705475 25.3384615,26.1428571 L31.0602198,26.1428571 C31.076044,25.9476923 31.0602198,25.5995604 31.0602198,25.3252747 C31.0597562,21.262631 29.1679637,17.4317635 25.9424176,14.9617582 L25.9424176,14.9617582 Z" id="Path" fill="#F44336"></path>
                        <circle id="Oval" fill="#EEEEEE" cx="3.27692308" cy="2.45142857" r="1"></circle>
                        <circle id="Oval" fill="#EEEEEE" cx="6.54725275" cy="2.45142857" r="1"></circle>
                        <path d="M33.5182418,30.8479121 L2.45142857,30.8479121 C1.09904541,30.8442893 0.00362279784,29.7488667 0,28.3964835 L0,28.5916484 C0.00362279784,29.9440315 1.09904541,31.0394541 2.45142857,31.0430769 L33.5182418,31.0430769 C34.8685646,31.0365619 35.9607892,29.9419821 35.9643956,28.5916484 L35.9643956,28.3964835 C35.9607892,29.7468172 34.8685646,30.841397 33.5182418,30.8479121 L33.5182418,30.8479121 Z" id="Path" fill-opacity="0.1" fill="#212121"></path>
                        <path d="M25.9793407,15.4589011 C26.0300763,15.3896794 26.0573388,15.3060434 26.0571439,15.2202198 C26.056419,14.9947511 25.8738203,14.8121524 25.6483516,14.8114272 C25.5565335,14.8111841 25.4674895,14.8428856 25.3964835,14.9010989 L16.4874725,21.7582418 C15.7076126,22.3590275 15.3630648,23.3682286 15.6127038,24.3204919 C15.8623427,25.2727552 16.6576832,25.9831309 17.6319854,26.1240573 C18.6062876,26.2649838 19.5703213,25.80909 20.0795604,24.9665934 L25.978022,15.4589011 L25.9793407,15.4589011 Z" id="Path" fill="#9E9E9E"></path>
                        <path d="M16.4874725,21.9652747 L25.3964835,15.1081319 C25.5030686,15.021555 25.6464582,14.9953392 25.7767817,15.0386024 C25.9071053,15.0818655 26.0063505,15.1886281 26.04,15.3217582 C26.0495037,15.2900591 26.0548235,15.2572538 26.0558242,15.2241758 C26.0551004,14.9987072 25.8725016,14.8161084 25.647033,14.8153832 C25.5552148,14.8151401 25.4661708,14.8468417 25.3951648,14.9050549 L16.4887912,21.7621978 C15.8859289,22.2249082 15.5329814,22.9420157 15.5340634,23.701978 L15.5340634,23.8114286 C15.5620964,23.0850366 15.9114046,22.4086444 16.4874725,21.9652747 L16.4874725,21.9652747 Z" id="Path" fill="#FFFFFF" opacity="0.2"></path>
                        <path d="M25.9793407,15.4589011 L20.0821978,24.9718681 C19.523222,25.8937262 18.4271084,26.3415711 17.3825241,26.0748881 C16.3379398,25.8082051 15.5906467,24.8897373 15.5419754,23.8127473 L15.5419754,23.9063736 C15.5403666,25.0067898 16.272599,25.9732899 17.3323762,26.2695849 C18.3921534,26.5658799 19.5194649,26.1192755 20.0887912,25.1775824 L25.9859341,15.6646154 C26.0366697,15.5953937 26.0639322,15.5117577 26.0637373,15.4259341 C26.0637373,15.39018 26.0583773,15.3546278 26.0479121,15.3204396 C26.0335239,15.3703246 26.0102985,15.417222 25.9793407,15.4589011 L25.9793407,15.4589011 Z" id="Path" fill="#212121" opacity="0.2"></path>
                        <path d="M25.9740659,14.9736264 C26.082643,15.1171646 26.082643,15.3153629 25.9740659,15.4589011 L20.0769231,24.9718681 C19.7034961,25.5853242 19.0795982,26.0039302 18.3703619,26.1168902 C17.6611257,26.2298501 16.9380536,26.0257758 16.3925275,25.5586813 L21.8808791,31.0470362 L33.5103297,31.0470362 C34.1603676,31.0480829 34.7841796,30.7907727 35.2444444,30.3317445 C35.7047091,29.8727164 35.9636967,29.2495989 35.9643956,28.5995604 L35.9643956,24.9665934 L25.9740659,14.9736264 Z" id="Path" fill="url(#linearGradient-1)"></path>
                        <path d="M35.964396,2.45142857 C35.964396,1.801619 35.706945,1.17828497 35.2477076,0.718552917 C34.7884701,0.25882086 34.165414,0.00034964193 33.5156044,0 L2.45934066,0 C1.80953111,0 1.18633608,0.258135837 0.726851341,0.717620572 C0.267366606,1.17710531 0.00923041366,1.80030035 0.00923041366,2.45010989 L0.00923041366,28.5995604 C0.00923041366,29.24937 0.266681334,29.872704 0.725918789,30.3324361 C1.18515624,30.7921682 1.8082124,31.0506394 2.45802198,31.050989 L33.5142857,31.050989 C34.8659006,31.050989 35.9622132,29.9564483 35.964396,28.6048352 L35.964396,2.45142857 Z" id="Path" fill="url(#radialGradient-2)"></path>
                    </g>
                </g>
            </g>
        </g>
    </g>
</svg>
