<?xml version="1.0" encoding="UTF-8"?>
<svg width="120px" height="120px" viewBox="0 0 120 120" version="1.1" xmlns="http://www.w3.org/2000/svg" xmlns:xlink="http://www.w3.org/1999/xlink">
    <title>F661D2FE-6E6F-4BCF-9833-8C0D5D026E23</title>
    <g id="Page-1" stroke="none" stroke-width="1" fill="none" fill-rule="evenodd" opacity="0.6">
        <g id="Future_cases_berber" transform="translate(-900.000000, -1445.000000)" fill="#000000">
            <g id="Video" transform="translate(160.000000, 1105.000000)">
                <g id="icon_play" transform="translate(740.000000, 340.000000)">
                    <path d="M60,0 C93.137085,0 120,26.862915 120,60 C120,93.137085 93.137085,120 60,120 C26.862915,120 0,93.137085 0,60 C0,26.862915 26.862915,0 60,0 Z M52.5,39.7714208 C51.1192881,39.7714208 50,40.890709 50,42.2714208 L50,42.2714208 L50,77.7285792 C50,78.2370903 50.1550699,78.7335102 50.4445195,79.1516041 C51.2304345,80.2868146 52.7878144,80.5699746 53.9230249,79.7840597 L53.9230249,79.7840597 L79.5309726,62.0554805 C79.7780961,61.884395 79.9923427,61.6701484 80.1634282,61.4230249 C80.9493432,60.2878144 80.6661832,58.7304345 79.5309726,57.9445195 L79.5309726,57.9445195 L53.9230249,40.2159403 C53.5049311,39.9264907 53.0085111,39.7714208 52.5,39.7714208 Z" id="Combined-Shape"></path>
                </g>
            </g>
        </g>
    </g>
</svg>