<?xml version="1.0" encoding="UTF-8"?>
<svg width="32px" height="32px" viewBox="0 0 32 32" version="1.1" xmlns="http://www.w3.org/2000/svg" xmlns:xlink="http://www.w3.org/1999/xlink">
    <title>6A9D066F-5950-4595-B604-62110591DD9A</title>
    <g id="Page-1" stroke="none" stroke-width="1" fill="none" fill-rule="evenodd">
        <g id="5" transform="translate(-1368.000000, -764.000000)" fill-rule="nonzero">
            <g id="Вопрос_6" transform="translate(160.000000, 248.000000)">
                <g id="Group-2-Copy-7" transform="translate(0.000000, 484.000000)">
                    <g id="remove" transform="translate(1208.000000, 32.000000)">
                        <path d="M16,0 C7.17724612,0 0,7.17724612 0,16 C0,24.8227539 7.17724612,32 16,32 C24.8227539,32 32,24.8227539 32,16 C32,7.17724612 24.8227539,0 16,0 Z" id="Path" fill="#F44336"></path>
                        <path d="M21.8920899,20.0065918 C22.4133301,20.5280762 22.4133301,21.3706055 21.8920899,21.8920899 C21.6320801,22.1520996 21.2907715,22.2827149 20.9492188,22.2827149 C20.6079101,22.2827149 20.2666016,22.1520996 20.0065918,21.8920899 L16,17.8852539 L11.9934082,21.8920899 C11.7333984,22.1520996 11.3920899,22.2827149 11.0507812,22.2827149 C10.7092285,22.2827149 10.3679199,22.1520996 10.1079101,21.8920899 C9.58666994,21.3706055 9.58666994,20.5280762 10.1079101,20.0065918 L14.1147461,16 L10.1079101,11.9934082 C9.58666994,11.4719238 9.58666994,10.6293945 10.1079101,10.1079101 C10.6293945,9.58666994 11.4719238,9.58666994 11.9934082,10.1079101 L16,14.1147461 L20.0065918,10.1079101 C20.5280762,9.58666994 21.3706055,9.58666994 21.8920899,10.1079101 C22.4133301,10.6293945 22.4133301,11.4719238 21.8920899,11.9934082 L17.8852539,16 L21.8920899,20.0065918 Z" id="Path" fill="#FAFAFA"></path>
                    </g>
                </g>
            </g>
        </g>
    </g>
</svg>