<svg width="64" height="64" xmlns="http://www.w3.org/2000/svg">
	<g fill="none" fill-rule="evenodd">
		<rect fill="#F0F0F0" width="64" height="64" rx="32"/>
		<g transform="translate(15 15)">
			<circle stroke="#000" stroke-width="3.182" cx="17.5" cy="17.5" r="15.909"/>
			<path
				d="M16.275 24v-1.9h4.237v-1.672h-4.237v-1.045h2.356c1.267 0 2.33-.409 3.192-1.226.861-.817 1.292-1.833 1.292-3.049s-.434-2.255-1.301-3.116c-.868-.861-1.929-1.292-3.183-1.292h-4.959v6.384h-1.425v2.299h1.425v1.045h-1.425V22.1h1.425V24h2.603zm2.356-6.916h-2.356v-3.933h2.356c.532 0 .979.187 1.34.56.36.374.541.84.541 1.397s-.18 1.026-.541 1.406c-.361.38-.808.57-1.34.57z"
				fill="#000" fill-rule="nonzero"/>
		</g>
	</g>
</svg>
