<svg width="48" height="48" viewBox="0 0 48 48" xmlns="http://www.w3.org/2000/svg"><title>Group 37 Copy</title><g fill="none" fill-rule="evenodd" opacity=".5"><circle stroke="#FFF" stroke-width="2" fill="#000" cx="24" cy="24" r="23"/><g fill="#FFF"><path d="M12.467 23.77l5.133 1.845 10.889-6.769c.311-.154.622-.308.933-.308 0 .462-.622.924-.933 1.231-2.333 2-6.222 4.923-8.245 7.231l1.867 1.385c.311 0 1.089.769 1.245.923.31.154 1.555 1.077 1.71 1.384.312 0 .312.154.467.308l1.556 1.077c.622.461 1.244 1.23 2.333.461l3.422-15.384c.467-2.616-.777-2.154-2.488-1.539l-17.423 6.923c-.622.308-1.244 1.077-.466 1.231z"/><path d="M19.622 31.923l.156.154c.31 0 .622-.154.933-.462l2.645-2.307c-.156-.154-.934-.923-1.245-.923L20.244 27l-.622 4.923z"/></g></g></svg>