<svg width="64px" height="64px" viewBox="0 0 64 64" version="1.1" xmlns="http://www.w3.org/2000/svg"
	 xmlns:xlink="http://www.w3.org/1999/xlink">
	<g id="Вакансии" stroke="none" stroke-width="1" fill="none" fill-rule="evenodd">
		<g id="12.-Сareers" transform="translate(-1399.000000, -1571.000000)">
			<g id="Актуальные-вакансии" transform="translate(160.000000, 1088.000000)">
				<g id="Преимущества" transform="translate(0.000000, 482.000000)">
					<g id="Преимущество_4" transform="translate(1239.000000, 0.000000)">
						<g id="user" transform="translate(0.000000, 1.000000)">
							<rect id="Rectangle-Copy-3" fill="#F0F0F0" x="0" y="0" width="64"
								  height="64" rx="32"></rect>
							<g id="users" transform="translate(15.000000, 15.000000)">
								<mask id="mask-2" fill="white">
									<path
										d="M18.9583333,20.4166667 C22.9854096,20.4166667 26.25,23.681257 26.25,27.7083333 L26.25,27.7083333 L26.25,30.625 C26.25,31.4304153 25.5970819,32.0833333 24.7916667,32.0833333 C23.9862514,32.0833333 23.3333333,31.4304153 23.3333333,30.625 L23.3333333,30.625 L23.3333333,27.7083333 C23.3333333,25.2920876 21.3745791,23.3333333 18.9583333,23.3333333 L18.9583333,23.3333333 L7.29166667,23.3333333 C4.87542089,23.3333333 2.91666667,25.2920876 2.91666667,27.7083333 L2.91666667,27.7083333 L2.91666667,30.625 C2.91666667,31.4304153 2.26374859,32.0833333 1.45833333,32.0833333 C0.652918073,32.0833333 0,31.4304153 0,30.625 L0,30.625 L0,27.7083333 C0,23.681257 3.26459037,20.4166667 7.29166667,20.4166667 L7.29166667,20.4166667 Z M27.7546414,21.7000004 C27.955995,20.9201604 28.7514096,20.4512045 29.5312496,20.6525581 C32.7486953,21.483298 34.997521,24.3842831 35,27.7083333 L35,27.7083333 L35,30.625 C35,31.4304153 34.3470819,32.0833333 33.5416667,32.0833333 C32.7362514,32.0833333 32.0833333,31.4304153 32.0833333,30.625 L32.0833333,30.625 L32.0833337,27.7094211 C32.0818466,25.7156436 30.7325512,23.9750526 28.8020837,23.4766086 C28.0222437,23.275255 27.5532878,22.4798404 27.7546414,21.7000004 Z M13.125,2.91666667 C17.1520763,2.91666667 20.4166667,6.18125703 20.4166667,10.2083333 C20.4166667,14.2354096 17.1520763,17.5 13.125,17.5 C9.0979237,17.5 5.83333333,14.2354096 5.83333333,10.2083333 C5.83333333,6.18125703 9.0979237,2.91666667 13.125,2.91666667 Z M21.9205729,4.20285952 C22.1203475,3.42261349 22.9148111,2.95204837 23.6950571,3.15182292 C26.9214644,3.97791368 29.1781048,6.88514011 29.1781048,10.215625 C29.1781048,13.5461099 26.9214644,16.4533363 23.6950571,17.2794271 C22.9148111,17.4792016 22.1203475,17.0086365 21.9205729,16.2283905 C21.7207984,15.4481444 22.1913635,14.6536808 22.9716095,14.4539062 C24.9074539,13.9582518 26.2614381,12.2139159 26.2614381,10.215625 C26.2614381,8.21733407 24.9074539,6.47299821 22.9716095,5.97734375 C22.1913635,5.7775692 21.7207984,4.98310555 21.9205729,4.20285952 Z M13.125,5.83333333 C10.7087542,5.83333333 8.75,7.79208755 8.75,10.2083333 C8.75,12.6245791 10.7087542,14.5833333 13.125,14.5833333 C15.5412458,14.5833333 17.5,12.6245791 17.5,10.2083333 C17.5,7.79208755 15.5412458,5.83333333 13.125,5.83333333 Z"></path>
								</mask>
								<g id="Group" mask="url(#mask-2)" fill="#000000">
									<rect id="Rectangle" x="0" y="0" width="35" height="35"></rect>
								</g>
							</g>
						</g>
					</g>
				</g>
			</g>
		</g>
	</g>
</svg>
