<svg width="64px" height="64px" viewBox="0 0 64 64" version="1.1" xmlns="http://www.w3.org/2000/svg"
	 xmlns:xlink="http://www.w3.org/1999/xlink">
	<g id="Вакансии" stroke="none" stroke-width="1" fill="none" fill-rule="evenodd">
		<g id="12.-Сareers" transform="translate(-573.000000, -1571.000000)">
			<g id="Актуальные-вакансии" transform="translate(160.000000, 1088.000000)">
				<g id="Преимущества" transform="translate(0.000000, 482.000000)">
					<g id="watch" transform="translate(413.000000, 1.000000)">
						<rect id="Rectangle-Copy" fill="#F0F0F0" x="0" y="0" width="64" height="64"
							  rx="32"></rect>
						<path fill="#000000"
							  d="M34.8399162,15 C37.1103889,14.9908241 39.0105906,16.7200077 39.2147819,18.9798096 L39.2147819,18.9798096 L39.67611,24.0170637 C41.9280358,26.1440463 43.3333333,29.157923 43.3333333,32.5000246 C43.3333333,35.8579867 41.914666,38.8846013 39.6439922,41.0132074 L39.1857495,46.0187626 C38.981424,48.2800416 37.0812222,50.0092251 34.8166667,50.0000612 L34.8166667,50.0000612 L28.5080005,50.0000612 C26.2375278,50.0092251 24.337326,48.2800416 24.1331347,46.0202397 L24.1331347,46.0202397 L23.6740699,40.9988661 C21.4123084,38.871018 20,35.8504525 20,32.5000246 C20,29.1416267 21.4190357,26.1146623 23.6902254,23.986013 L24.1475849,18.9812753 C24.3511717,16.7283681 26.2386237,15.0021557 28.5020833,15 L28.5020833,15 Z M26.7948799,43.1039251 L27.0378328,45.7562866 C27.1059413,46.5100463 27.7393419,47.0864408 28.5020833,47.083358 L28.5020833,47.083358 L34.8225838,47.08337 C35.5794081,47.0864408 36.2128087,46.5100463 36.2810514,45.7548096 L36.2810514,45.7548096 L36.5229582,43.1110421 C35.0443708,43.7888453 33.3996441,44.1666913 31.6666667,44.1666913 C29.9276332,44.1666913 28.2774682,43.7861999 26.7948799,43.1039251 Z M31.6666667,23.7500246 C29.5470874,23.7500246 27.6035314,24.5036701 26.0893496,25.7576101 C26.0489394,25.797732 26.0056954,25.8340037 25.9604832,25.8676884 C24.0967016,27.4711475 22.9166667,29.8477801 22.9166667,32.5000246 C22.9166667,37.3325162 26.8341751,41.2500246 31.6666667,41.2500246 C33.7885783,41.2500246 35.7340789,40.4947197 37.2489806,39.238298 C37.2859386,39.2011662 37.3261469,39.167438 37.3680646,39.1359415 C39.2349342,37.5323194 40.4166667,35.1541762 40.4166667,32.5000246 C40.4166667,27.6675331 36.4991582,23.7500246 31.6666667,23.7500246 Z M31.6666667,26.6666913 C32.4720819,26.6666913 33.125,27.3196094 33.125,28.1250246 L33.125,28.1250246 L33.125,31.8959632 L34.8853641,33.6563272 C35.4548786,34.2258418 35.4548786,35.1492074 34.8853641,35.718722 C34.3158495,36.2882366 33.3924839,36.2882366 32.8229693,35.718722 L32.8229693,35.718722 L30.6354693,33.531222 C30.3619787,33.2577315 30.2083333,32.8867987 30.2083333,32.5000246 L30.2083333,32.5000246 L30.2083333,28.1250246 C30.2083333,27.3196094 30.8612514,26.6666913 31.6666667,26.6666913 Z M34.8458333,17.9166913 L28.5034568,17.9166907 C27.7494281,17.9174008 27.1202774,18.4928049 27.0522819,19.2452397 L27.0522819,19.2452397 L26.8098579,21.8892443 C28.2885789,21.2112921 29.9334872,20.833358 31.6666667,20.833358 C33.4117902,20.833358 35.0674217,21.216519 36.5540231,21.9033031 L36.3100838,19.2437626 C36.2419753,18.490003 35.6085748,17.9136085 34.8458333,17.9166913 L34.8458333,17.9166913 Z"
							  id="path-2"></path>
					</g>
				</g>
			</g>
		</g>
	</g>
</svg>
