<?xml version="1.0" encoding="UTF-8"?>
<svg width="64px" height="64px" viewBox="0 0 64 64" version="1.1" xmlns="http://www.w3.org/2000/svg" xmlns:xlink="http://www.w3.org/1999/xlink">
    <title>EEF15109-16F6-4E8C-9494-71F92D93FA14</title>
    <defs>
        <linearGradient x1="0%" y1="0%" x2="100%" y2="100%" id="linearGradient-1">
            <stop stop-color="#F9F9F9" offset="0%"></stop>
            <stop stop-color="#E9E9E9" offset="100%"></stop>
        </linearGradient>
    </defs>
    <g id="Page-1" stroke="none" stroke-width="1" fill="none" fill-rule="evenodd">
        <g id="CRM_Future" transform="translate(-1280.000000, -1816.000000)">
            <g id="Group-10" transform="translate(160.000000, 1486.000000)">
                <g id="Group-7" transform="translate(560.000000, 330.000000)">
                    <g id="Group-2-Copy" transform="translate(560.000000, 0.000000)">
                        <circle id="Oval" fill="url(#linearGradient-1)" cx="32" cy="32" r="32"></circle>
                        <g id="user-group" transform="translate(17.000000, 21.000000)" fill="#000000" fill-rule="nonzero">
                            <path d="M12.0593407,13.6730486 C16.0450549,13.6730486 19.2813187,10.5949926 19.2813187,6.8365243 C19.2813187,3.04565538 16.0450549,0 12.0593407,0 C8.07362637,0 4.83736264,3.07805596 4.83736264,6.8365243 C4.87142857,10.5949926 8.10769231,13.6730486 12.0593407,13.6730486 Z M12.0593407,2.55964654 C14.5461538,2.55964654 16.556044,4.4712813 16.556044,6.80412371 C16.556044,9.13696613 14.5461538,11.0486009 12.0593407,11.0486009 C9.57252747,11.0486009 7.56263736,9.13696613 7.56263736,6.80412371 C7.5967033,4.4712813 9.60659341,2.55964654 12.0593407,2.55964654 Z M15.3296703,14.2886598 C14.9549451,14.191458 14.5461538,14.2238586 14.2054945,14.4182622 L12.0593407,15.6494845 L9.91318681,14.4182622 C9.57252747,14.2238586 9.16373626,14.191458 8.78901099,14.2886598 C6.71098901,14.9366716 0,17.2371134 0,20.7039764 C0,21.4167894 0.613186813,22 1.36263736,22 L22.756044,22 C23.5054945,22 24.1186813,21.4167894 24.1186813,20.7039764 C24.1186813,17.2371134 17.4076923,14.9366716 15.3296703,14.2886598 Z M3.81538462,19.4079529 C4.97362637,18.5655376 6.91538462,17.6583211 9.02747253,16.9455081 L11.343956,18.2739323 C11.7868132,18.533137 12.3318681,18.533137 12.7406593,18.2739323 L15.0571429,16.9455081 C17.1692308,17.6259205 19.110989,18.5655376 20.2692308,19.4079529 L3.81538462,19.4079529 Z M31,18.4359352 C31,18.9867452 30.5571429,19.4079529 29.978022,19.4079529 L25.4131868,19.4079529 C24.8340659,19.4079529 24.3912088,18.9867452 24.3912088,18.4359352 C24.3912088,17.8851252 24.8340659,17.4639175 25.4131868,17.4639175 L28.4450549,17.4639175 C27.9340659,16.8159057 27.1164835,16.2974963 26.0945055,15.7790869 C25.5835165,15.5198822 25.4131868,14.9366716 25.6857143,14.4830633 C25.9582418,13.9970545 26.5714286,13.8350515 27.0824176,14.0942563 C28.5472527,14.8394698 31,16.4270987 31,18.4359352 Z M25.2769231,9.88217968 C25.2769231,8.45655376 24.0505495,7.32253314 22.5857143,7.32253314 C22.210989,7.32253314 21.8703297,7.38733432 21.5296703,7.51693667 C21.0186813,7.71134021 20.4054945,7.48453608 20.2010989,6.99852725 C19.9967033,6.51251841 20.2351648,5.92930781 20.7461538,5.73490427 C21.3252747,5.50810015 21.9384615,5.37849779 22.5857143,5.37849779 C25.2087912,5.37849779 27.3208791,7.38733432 27.3208791,9.88217968 C27.3208791,12.377025 25.1747253,14.3858616 22.5857143,14.3858616 C21.2230769,14.3858616 19.9285714,13.8350515 19.0428571,12.8630339 C18.6681319,12.4742268 18.7021978,11.8586156 19.1450549,11.5022091 C19.5538462,11.1458027 20.2010989,11.1782032 20.5758242,11.5994109 C21.0868132,12.1502209 21.8362637,12.4742268 22.6197802,12.4742268 C24.0505495,12.4418262 25.2769231,11.275405 25.2769231,9.88217968 Z" id="XMLID_1265_"></path>
                        </g>
                    </g>
                </g>
            </g>
        </g>
    </g>
</svg>