<?xml version="1.0" encoding="UTF-8"?>
<svg width="64px" height="64px" viewBox="0 0 64 64" version="1.1" xmlns="http://www.w3.org/2000/svg" xmlns:xlink="http://www.w3.org/1999/xlink">
    <title>C4362894-F40E-4F9D-A97F-5036504E5E38</title>
    <defs>
        <linearGradient x1="0%" y1="0%" x2="100%" y2="100%" id="linearGradient-1">
            <stop stop-color="#F9F9F9" offset="0%"></stop>
            <stop stop-color="#E9E9E9" offset="100%"></stop>
        </linearGradient>
    </defs>
    <g id="Page-1" stroke="none" stroke-width="1" fill="none" fill-rule="evenodd">
        <g id="CRM_Future" transform="translate(-720.000000, -2323.000000)">
            <g id="Group-10" transform="translate(160.000000, 1486.000000)">
                <g id="Group-7" transform="translate(560.000000, 330.000000)">
                    <g id="Group-2" transform="translate(0.000000, 507.000000)">
                        <circle id="Oval" fill="url(#linearGradient-1)" cx="32" cy="32" r="32"></circle>
                        <g id="document-remove" transform="translate(21.000000, 18.000000)" fill="#000000" fill-rule="nonzero">
                            <path d="M21.6117647,7.47727273 L14.4617647,0.381818182 C14.2029412,0.127272727 13.8794118,0 13.5235294,0 L1.29411765,0 C0.582352941,0 0,0.572727273 0,1.27272727 L0,26.7272727 C0,27.4272727 0.582352941,28 1.29411765,28 L20.7058824,28 C21.4176471,28 22,27.4272727 22,26.7272727 L22,8.36818182 C22,8.01818182 21.8705882,7.7 21.6117647,7.47727273 Z M19.4117647,8.90909091 L12.9411765,8.90909091 L12.9411765,2.54545455 L13.0058824,2.54545455 L19.4117647,8.90909091 Z M2.58823529,25.4545455 L2.58823529,2.54545455 L10.3529412,2.54545455 L10.3529412,10.15 C10.3529412,10.85 10.9029412,11.4545455 11.6147059,11.4545455 L19.4117647,11.4545455 L19.4117647,25.4545455 L2.58823529,25.4545455 Z M15.0441176,17.9772727 C15.0441176,18.5818182 14.5264706,19.0909091 13.9117647,19.0909091 L8.08823529,19.0909091 C7.47352941,19.0909091 6.95588235,18.5818182 6.95588235,17.9772727 C6.95588235,17.3727273 7.44117647,16.8636364 8.08823529,16.8636364 L13.9117647,16.8636364 C14.5588235,16.8636364 15.0441176,17.3727273 15.0441176,17.9772727 Z" id="XMLID_1246_"></path>
                        </g>
                    </g>
                </g>
            </g>
        </g>
    </g>
</svg>