<?xml version="1.0" encoding="UTF-8"?>
<svg width="64px" height="64px" viewBox="0 0 64 64" version="1.1" xmlns="http://www.w3.org/2000/svg" xmlns:xlink="http://www.w3.org/1999/xlink">
    <title>7B04B78E-8BEC-4D6E-90CF-FAF563E6BC18</title>
    <defs>
        <linearGradient x1="0%" y1="0%" x2="100%" y2="100%" id="linearGradient-1">
            <stop stop-color="#F9F9F9" offset="0%"></stop>
            <stop stop-color="#E9E9E9" offset="100%"></stop>
        </linearGradient>
        <linearGradient x1="50%" y1="0%" x2="50%" y2="100%" id="linearGradient-2">
            <stop stop-color="#000000" offset="0%"></stop>
            <stop stop-color="#000000" offset="100%"></stop>
        </linearGradient>
    </defs>
    <g id="Page-1" stroke="none" stroke-width="1" fill="none" fill-rule="evenodd">
        <g id="CRM_Future" transform="translate(-1280.000000, -1985.000000)">
            <g id="Group-10" transform="translate(160.000000, 1486.000000)">
                <g id="Group-7" transform="translate(560.000000, 330.000000)">
                    <g id="Group-2" transform="translate(560.000000, 169.000000)">
                        <circle id="Oval" fill="url(#linearGradient-1)" cx="32" cy="32" r="32"></circle>
                        <path d="M27.6869565,28.9391304 L17.2173913,28.9391304 C16.5565217,28.9391304 16,28.3826087 16,27.7217391 C16,21.2521739 21.2521739,16 27.6869565,16 C28.3478261,16 28.9043478,16.5565217 28.9043478,17.2173913 L28.9043478,27.6869565 C28.9391304,28.3826087 28.3826087,28.9391304 27.6869565,28.9391304 Z M18.5391304,26.4695652 L26.5043478,26.4695652 L26.5043478,18.5391304 C22.3652174,19.0608696 19.0608696,22.3652174 18.5391304,26.4695652 Z M33.0782609,48 C24.8347826,48 18.1565217,41.6 18.1565217,33.7043478 C18.1565217,32.9391304 18.7826087,32.3130435 19.5478261,32.3130435 L32.3130435,32.3130435 L32.3130435,19.5478261 C32.3130435,18.7826087 32.9391304,18.1565217 33.7043478,18.1565217 C41.4608696,18.1565217 48,24.973913 48,33.0782609 C48,41.2869565 41.2869565,48 33.0782609,48 Z M21.0434783,35.0956522 C21.773913,40.8 26.8869565,45.2173913 33.0782609,45.2173913 C39.7565217,45.2173913 45.2173913,39.7565217 45.2173913,33.0782609 C45.2173913,26.9913043 40.6956522,21.773913 35.0956522,21.0434783 L35.0956522,33.7043478 C35.0956522,34.4695652 34.4695652,35.0956522 33.7043478,35.0956522 L21.0434783,35.0956522 Z" id="XMLID_77_" fill="url(#linearGradient-2)" fill-rule="nonzero"></path>
                    </g>
                </g>
            </g>
        </g>
    </g>
</svg>