<?xml version="1.0" encoding="UTF-8"?>
<svg width="64px" height="64px" viewBox="0 0 64 64" version="1.1" xmlns="http://www.w3.org/2000/svg" xmlns:xlink="http://www.w3.org/1999/xlink">
    <title>8F1E9804-F88E-44C8-9947-2A7A0A2CC805</title>
    <defs>
        <linearGradient x1="0%" y1="0%" x2="100%" y2="100%" id="linearGradient-1">
            <stop stop-color="#F9F9F9" offset="0%"></stop>
            <stop stop-color="#E9E9E9" offset="100%"></stop>
        </linearGradient>
    </defs>
    <g id="Page-1" stroke="none" stroke-width="1" fill="none" fill-rule="evenodd">
        <g id="CRM_Future" transform="translate(-1280.000000, -2323.000000)">
            <g id="Group-10" transform="translate(160.000000, 1486.000000)">
                <g id="Group-7" transform="translate(560.000000, 330.000000)">
                    <g id="Group-2" transform="translate(560.000000, 507.000000)">
                        <circle id="Oval" fill="url(#linearGradient-1)" cx="32" cy="32" r="32"></circle>
                        <g id="experiment" transform="translate(18.000000, 18.000000)" fill="#000000" fill-rule="nonzero">
                            <path d="M27.8751321,0.668181818 C27.6523662,0.254545455 27.2068344,0 26.7613027,0 L1.23869733,0 C0.79316557,0 0.347633806,0.254545455 0.124867924,0.668181818 C-0.0978979582,1.08181818 -0.0024268659,1.59090909 0.252162713,1.97272727 L10.1811563,16.5454545 L10.1811563,26.1863636 C10.1811563,27.1727273 10.849454,28 11.8678123,28 L16.1321877,28 C17.1187223,28 17.8188437,27.2045455 17.8188437,26.1863636 L17.8188437,16.5454545 L27.7478373,1.97272727 C28.0024269,1.59090909 28.097898,1.08181818 27.8751321,0.668181818 Z M15.5593612,15.4636364 C15.4002427,15.6545455 15.2729479,15.9090909 15.2729479,16.1636364 L15.2729479,25.4545455 L12.7270521,25.4545455 L12.7270521,16.1636364 C12.7270521,15.9090909 12.5997573,15.6545455 12.4406388,15.4636364 L9.41738757,11.0409091 C10.0538615,10.85 10.8176303,10.6590909 11.6450464,10.6909091 C12.631581,10.6909091 13.2998787,10.8818182 14.0318237,11.0727273 C14.7955924,11.2636364 15.5593612,11.4545455 16.6413669,11.4863636 C17.2778408,11.4863636 17.8506674,11.4545455 18.3598465,11.3909091 L15.5593612,15.4636364 Z M20.205621,8.65454545 C20.205621,8.65454545 20.205621,8.65454545 20.205621,8.65454545 C20.1737973,8.65454545 18.837202,9.25909091 16.6413669,9.22727273 C15.8457745,9.22727273 15.2411242,9.06818182 14.5728266,8.87727273 C13.8090578,8.68636364 12.9179943,8.46363636 11.6450464,8.43181818 C10.21298,8.43181818 8.94003211,8.78181818 8.08079228,9.1 L3.65729834,2.54545455 L24.3745254,2.54545455 L20.205621,8.65454545 Z M17.5960778,6.55454545 C17.3733119,6.33181818 17.2141934,5.98181818 17.2141934,5.66363636 C17.2141934,5.31363636 17.3414882,4.99545455 17.5960778,4.77272727 C17.8188437,4.55 18.1689044,4.39090909 18.4871413,4.39090909 C18.837202,4.39090909 19.155439,4.51818182 19.3782049,4.77272727 C19.6009707,5.02727273 19.7600892,5.34545455 19.7600892,5.66363636 C19.7600892,6.01363636 19.6327944,6.33181818 19.3782049,6.55454545 C19.1236153,6.77727273 18.8053783,6.93636364 18.4871413,6.93636364 C18.1689044,6.93636364 17.8188437,6.77727273 17.5960778,6.55454545 Z" id="XMLID_1550_"></path>
                        </g>
                    </g>
                </g>
            </g>
        </g>
    </g>
</svg>