<?xml version="1.0" encoding="UTF-8"?>
<svg width="64px" height="64px" viewBox="0 0 64 64" version="1.1" xmlns="http://www.w3.org/2000/svg" xmlns:xlink="http://www.w3.org/1999/xlink">
    <title>EE1C6C2F-64A8-4DF9-BCF4-913EAEAEB35B</title>
    <defs>
        <linearGradient x1="0%" y1="0%" x2="100%" y2="100%" id="linearGradient-1">
            <stop stop-color="#F9F9F9" offset="0%"></stop>
            <stop stop-color="#E9E9E9" offset="100%"></stop>
        </linearGradient>
    </defs>
    <g id="Page-1" stroke="none" stroke-width="1" fill="none" fill-rule="evenodd">
        <g id="CRM_Future" transform="translate(-720.000000, -2154.000000)">
            <g id="Group-10" transform="translate(160.000000, 1486.000000)">
                <g id="Group-7" transform="translate(560.000000, 330.000000)">
                    <g id="Group-2" transform="translate(0.000000, 338.000000)">
                        <circle id="Oval" fill="url(#linearGradient-1)" cx="32" cy="32" r="32"></circle>
                        <g id="network-1" transform="translate(22.000000, 16.000000)" fill="#000000" fill-rule="nonzero">
                            <path d="M17.2612313,24.4183719 C15.6888519,24.4183719 14.3610649,25.6285849 13.8019967,26.6964198 L6.18469218,26.6964198 C5.5906822,26.6964198 5.24126456,26.3760693 5.24126456,25.7709628 L5.24126456,17.7977953 L13.8019967,17.7977953 C14.3610649,19.2215752 15.6888519,20.1114377 17.2612313,20.1114377 C19.3227953,20.1114377 21,18.4029018 21,16.3384209 C21,14.27394 19.3227953,12.5654041 17.2612313,12.5654041 C15.6888519,12.5654041 14.3610649,13.5264555 13.8019967,14.9502355 L5.24126456,14.9502355 L5.24126456,7.29741839 C5.24126456,7.29741839 5.17138103,7.26182389 5.17138103,7.26182389 C6.53410982,6.69231192 7.47753744,5.339721 7.47753744,3.77356309 C7.47753744,1.6734877 5.80033278,0.000546297725 3.73876872,0.000546297725 C1.67720466,-0.0350482003 0,1.6734877 0,3.73796859 C0,5.3041265 1.01331115,6.69231192 2.37603993,7.22622939 C2.37603993,7.22622939 2.44592346,7.26182389 2.44592346,7.26182389 L2.44592346,25.7709628 C2.44592346,27.9422272 4.05324459,29.5439796 6.18469218,29.5439796 L13.8019967,29.5439796 C14.3610649,30.9677596 15.6888519,32 17.2612313,32 C19.3227953,32 21,30.2914641 21,28.2269832 C21,26.1625023 19.2878536,24.4183719 17.2612313,24.4183719 Z M17.2612313,14.701074 C18.1697171,14.701074 18.9034942,15.4485584 18.9034942,16.3384209 C18.9034942,17.2282833 18.1697171,17.9757678 17.2612313,17.9757678 C16.3527454,17.9757678 15.6189684,17.2282833 15.6189684,16.3384209 C15.6189684,15.4129639 16.3527454,14.701074 17.2612313,14.701074 Z M3.70382696,2.10062168 C4.61231281,2.10062168 5.34608985,2.84810614 5.34608985,3.73796859 C5.34608985,4.62783104 4.61231281,5.3753155 3.70382696,5.3753155 C2.7953411,5.3753155 2.06156406,4.62783104 2.06156406,3.73796859 C2.06156406,2.84810614 2.83028286,2.10062168 3.70382696,2.10062168 Z M17.2612313,29.9355191 C16.3527454,29.9355191 15.6189684,29.1880347 15.6189684,28.2981722 C15.6189684,27.4083098 16.3527454,26.6608253 17.2612313,26.6608253 C18.1697171,26.6608253 18.9034942,27.4083098 18.9034942,28.2981722 C18.9034942,29.1880347 18.1347754,29.9355191 17.2612313,29.9355191 Z" id="XMLID_1871_"></path>
                        </g>
                    </g>
                </g>
            </g>
        </g>
    </g>
</svg>