<?xml version="1.0" encoding="UTF-8"?>
<svg width="64px" height="64px" viewBox="0 0 64 64" version="1.1" xmlns="http://www.w3.org/2000/svg" xmlns:xlink="http://www.w3.org/1999/xlink">
    <title>54ABFEAC-BF55-4B00-8457-FFF42925B01E</title>
    <defs>
        <linearGradient x1="0%" y1="0%" x2="100%" y2="100%" id="linearGradient-1">
            <stop stop-color="#F9F9F9" offset="0%"></stop>
            <stop stop-color="#E9E9E9" offset="100%"></stop>
        </linearGradient>
    </defs>
    <g id="Page-1" stroke="none" stroke-width="1" fill="none" fill-rule="evenodd">
        <g id="CRM_Future" transform="translate(-1280.000000, -2154.000000)">
            <g id="Group-10" transform="translate(160.000000, 1486.000000)">
                <g id="Group-7" transform="translate(560.000000, 330.000000)">
                    <g id="Group-2" transform="translate(560.000000, 338.000000)">
                        <circle id="Oval" fill="url(#linearGradient-1)" cx="32" cy="32" r="32"></circle>
                        <g id="graph-bar" transform="translate(22.000000, 19.000000)" fill="#000000" fill-rule="nonzero">
                            <path d="M19.0909091,27 C18.0409091,27 17.1818182,26.1523256 17.1818182,25.1162791 L17.1818182,1.88372093 C17.1818182,0.847674419 18.0409091,0 19.0909091,0 C20.1409091,0 21,0.847674419 21,1.88372093 L21,25.1162791 C21,26.1523256 20.1409091,27 19.0909091,27 Z M12.4090909,25.1162791 L12.4090909,9.54418605 C12.4090909,8.50813953 11.55,7.66046512 10.5,7.66046512 C9.45,7.66046512 8.59090909,8.50813953 8.59090909,9.54418605 L8.59090909,25.1162791 C8.59090909,26.1523256 9.45,27 10.5,27 C11.55,27 12.4090909,26.1523256 12.4090909,25.1162791 Z M3.81818182,25.1162791 L3.81818182,17.2046512 C3.81818182,16.1686047 2.95909091,15.3209302 1.90909091,15.3209302 C0.859090909,15.3209302 0,16.1686047 0,17.2046512 L0,25.1162791 C0,26.1523256 0.859090909,27 1.90909091,27 C2.95909091,27 3.81818182,26.1523256 3.81818182,25.1162791 Z" id="XMLID_78_"></path>
                        </g>
                    </g>
                </g>
            </g>
        </g>
    </g>
</svg>