<svg width="40" height="40" viewBox="0 0 40 40" fill="none" xmlns="http://www.w3.org/2000/svg">
<path d="M20 40C31.0457 40 40 31.0457 40 20C40 8.9543 31.0457 0 20 0C8.9543 0 0 8.9543 0 20C0 31.0457 8.9543 40 20 40Z" fill="#0050CF"/>
<path d="M26.7814 18.8127C26.1587 18.2811 25.4768 17.8594 24.7615 17.5449C25.0422 17.313 25.3079 17.0577 25.5552 16.7771C28.0774 13.9144 27.7655 9.57967 24.8583 7.09618C23.5375 5.96828 21.9102 5.4165 20.2904 5.41756L10.4167 5.4165V34.5832H29.5832V24.9203C29.5994 22.6612 28.6497 20.4097 26.7814 18.8127ZM25.5176 32.2956H22.0328V22.5733H17.9672V32.2956H14.4824V7.70408H18.548C20.7131 7.70408 22.5319 9.16245 23.0482 11.1354H19.1288V13.4231H23.046C22.5308 15.395 20.7152 16.8523 18.5523 16.8544H18.5437H16.8056V19.1419H19.7096C21.0595 19.1409 22.4157 19.6017 23.516 20.5411C24.8389 21.6711 25.5155 23.2618 25.5165 24.8609H25.5186L25.5176 32.2956Z" fill="white"/>
</svg>
