<svg width="155" height="30" xmlns="http://www.w3.org/2000/svg"><g fill="none" fill-rule="evenodd"><path d="M9.773 2.285H8.33c-2.18 0-4.289 1.442-4.289 5.625 0 4.043 1.934 5.344 4.29 5.344h1.44V2.285zm-2.25 13.22l-4.29 9.632H.106l4.71-10.301C2.6 13.711 1.125 11.672 1.125 7.91 1.124 2.637 4.464 0 8.437 0h4.043v25.137H9.773v-9.633h-2.25z" fill="red"/><path d="M65.077 16.278c0-5.555 2.145-9.106 6.294-9.106 1.581 0 2.496.422 3.27.914l-.388 2.602c-.738-.633-1.793-1.23-2.918-1.23-1.969 0-3.374 2.214-3.374 6.679 0 4.43 1.054 6.961 3.269 6.961 1.336 0 2.355-.527 2.988-1.09l.633 2.039c-.95.808-2.074 1.336-3.692 1.336-3.797 0-6.082-3.058-6.082-9.105zm-8.015.034v8.825h-2.743V7.417h2.743v8.192l4.254-8.191h2.777L59.7 15.75l5.027 9.387h-2.988l-4.676-8.825zM44.159 14.66h4.536c0-3.023-.493-5.238-2.075-5.238-1.687 0-2.285 2.074-2.46 5.238zm3.024 10.723c-3.657 0-5.906-2.918-5.906-8.366 0-5.697 1.582-9.845 5.343-9.845 2.954 0 4.887 2.215 4.887 8.226v1.512h-7.383c0 4.009 1.125 6.118 3.305 6.118 1.547 0 2.777-.703 3.48-1.195l.633 2.108c-1.125.88-2.601 1.442-4.36 1.442zM35.51 9.633h-3.059v.317c0 3.726-.176 9.175-1.652 12.937h4.71V9.633zm4.113 18.985h-2.46v-3.481h-7.595v3.48h-2.46v-5.73h1.09c1.616-3.762 1.792-9.246 1.792-13.957V7.418h8.227v15.469h1.406v5.73zm-14.097-21.2v17.719h-2.708v-7.945h-4.078v7.945H16V7.417h2.742v7.524h4.078V7.418h2.708zM91.635 1.441h-5.448c-.106 6.364-.282 11.215-.563 14.837-.317 3.76-.88 6.257-1.828 7.418h7.84V1.441zM93.5 25.137H82.74l-.247 4.184h-1.37v-5.625h.738c1.23-1.02 1.828-3.832 2.18-7.418.351-3.727.457-9.282.562-16.278h8.79v23.696h1.723v5.625h-1.372l-.246-4.184zM98.53 15.257h6.434c.28-4.71-1.126-6.82-2.919-6.82-1.863 0-3.375 2.391-3.516 6.82zm3.866 8.79c2.356 0 3.586-1.898 3.586-1.898l.528 1.335s-1.336 2.004-4.148 2.004c-3.761 0-5.485-3.41-5.485-9.21 0-5.801 2.18-9.212 5.168-9.212 3.059 0 5.027 3.2 4.465 9.493h-8.016c.07 4.852 1.336 7.488 3.902 7.488zM117.34 16.594h-6.046v8.543h-1.652V7.417h1.652v7.84h6.047v-7.84h1.652v17.72h-1.652v-8.543M124.55 15.293v8.543h1.055c2.496 0 4.184-1.23 4.184-4.289 0-2.988-1.477-4.254-4.008-4.254h-1.231zm-1.651-7.875h1.651v6.574h1.302c3.375 0 5.554 1.829 5.554 5.52 0 3.762-2.32 5.625-5.66 5.625h-2.847V7.417zM135.873 8.79v16.347h-1.617V7.417h7.488V8.79h-5.871M152.54 12.797c0-.914.07-1.688.141-2.426h-.106a15.722 15.722 0 01-.949 2.285l-5.765 12.48h-1.406V7.419h1.547v12.305c0 .949-.072 1.722-.141 2.496h.105c.246-.808.597-1.582.949-2.355l5.766-12.446h1.44v17.719h-1.58v-12.34" fill="#000"/></g></svg>