<svg width="102" height="37" xmlns="http://www.w3.org/2000/svg"><path d="M24.834 32.434c3.162 0 6.593 1.08 10.39 4.435.38.336.887-.081.555-.499-3.731-4.697-7.183-5.592-10.625-6.349-4.21-.925-6.376-3.287-7.886-5.88-.3-.516-.435-.425-.462.238-.033.811.023 1.885.205 2.94-.17.009-.34.006-.512.006-6.024 0-10.907-4.868-10.907-10.874S10.475 5.576 16.5 5.576c6.023 0 10.907 4.869 10.907 10.875 0 .427-.021.85-.07 1.264-.796-.143-2.364-.16-3.463-.065-.414.036-.356.228-.043.285 3.605.649 6.082 2.877 6.649 6.92.013.093.134.12.183.04a16.338 16.338 0 002.336-8.444C32.998 7.365 25.61 0 16.498 0 7.388 0 0 7.365 0 16.45c0 9.086 7.387 16.452 16.499 16.452 2.417 0 4.815-.468 8.335-.468zm1.228-5.973c.734.618.958 1.354.57 1.873-.217.285-.566.441-.986.441-.412 0-.832-.152-1.123-.405-.667-.582-.863-1.524-.427-2.06.17-.21.447-.325.778-.325.403 0 .825.17 1.188.476zm3.387-1.572c.108.721-.12 1.02-.35 1.02-.25 0-.564-.293-.935-.87-.366-.568-.5-1.222-.319-1.552.12-.218.37-.313.687-.194.612.23.853 1.166.917 1.596zm22.87-3.767l-1.901-2.281a.367.367 0 01.283-.602h3.98c.189-.562.296-1.163.296-1.787 0-2.858-2.133-5.322-5.061-5.322s-5.06 2.464-5.06 5.322c0 2.857 2.132 5.286 5.06 5.286.887 0 1.7-.226 2.404-.616zm8.607 3.855c.207.228.037.595-.274.595h-4.343a.596.596 0 01-.457-.214l-.736-.883a9.547 9.547 0 01-5.2 1.535c-5.286 0-9.586-4.288-9.586-9.558 0-5.271 4.3-9.56 9.586-9.56 5.286 0 9.586 4.289 9.586 9.56 0 1.9-.56 3.67-1.523 5.16l2.947 3.365zm40.115-17.644h-3.544a.47.47 0 00-.471.47V25.1c0 .26.21.47.471.47h3.544a.47.47 0 00.472-.47V7.803a.47.47 0 00-.472-.47zm-5.963 0h-3.966a.47.47 0 00-.45.33l-3.138 10.222-3.449-10.233a.471.471 0 00-.447-.32h-2.767a.472.472 0 00-.447.32l-3.448 10.233-3.138-10.222a.47.47 0 00-.451-.33h-3.965a.474.474 0 00-.383.194.462.462 0 00-.064.42l5.823 17.306c.065.19.245.319.448.319h3.147a.472.472 0 00.447-.319l3.415-10.11 3.414 10.11c.065.19.245.319.448.319h3.147a.471.471 0 00.447-.319l5.824-17.306a.462.462 0 00-.065-.42.474.474 0 00-.382-.194zm-27.614.47V25.1a.47.47 0 01-.472.47h-3.544a.47.47 0 01-.471-.47V7.803c0-.26.211-.47.471-.47h3.544c.26 0 .472.21.472.47z" fill="#E9832C" fill-rule="evenodd"/></svg>