<svg width="134" height="29" xmlns="http://www.w3.org/2000/svg"><g fill="#70BC34" fill-rule="nonzero"><path d="M19.162 13.2v8.858h-4.055V7.532h3.661v1.403a14.875 14.875 0 014.025-1.7v4.057c-1.21.508-2.76 1.252-3.63 1.907M.434 13.504c0-3.547 1.1-6.269 6.717-6.269 1.963.02 3.922.194 5.86.52v13.639c0 5.536-3.638 7.017-9.082 7.017-.97-.01-1.938-.092-2.896-.244l.24-3.606c.686.087 1.377.137 2.069.151 3.836 0 5.417-.776 5.417-2.944v-.473a9.883 9.883 0 01-3.893.825c-2.872 0-4.432-2.047-4.432-5.381v-3.235zm8.319 3.971v-6.359a16.624 16.624 0 00-1.749-.061c-1.955 0-2.309 1.008-2.309 2.415v3.241c0 .977.369 1.59 1.333 1.59a6.173 6.173 0 002.725-.826zM27.952 16.544v.432c0 1.715.683 2.159 2.726 2.159 1.55-.013 3.092-.23 4.585-.645l.661 3.312a18.17 18.17 0 01-5.676.962c-4.898 0-6.757-2.39-6.757-6.065v-3.491c0-3.216 1.457-5.973 6.476-5.973s6.101 2.939 6.101 6.186v3.123h-8.116zm3.918-3.95c0-1.042-.312-1.9-1.872-1.9s-2.046.858-2.046 1.9v.642h3.918v-.642zM41.227 16.552v.432c0 1.716.683 2.16 2.726 2.16 1.55-.013 3.093-.23 4.586-.645l.648 3.315c-1.825.615-3.739.936-5.667.95-4.897 0-6.753-2.392-6.753-6.07v-3.481c0-3.219 1.456-5.978 6.475-5.978s6.101 2.941 6.101 6.19v3.127h-8.116zm3.905-3.953c0-1.043-.312-1.901-1.871-1.901-1.56 0-2.043.858-2.043 1.9v.642h3.905l.01-.641zM59.085 22.058v-9.61c0-.657-.296-1.045-1.03-1.045-.733 0-2.174.538-3.085 1.045v9.61h-4.23V7.535h3.145l.44 1.102a14.295 14.295 0 015.7-1.402c2.437 0 3.292 1.85 3.292 4.652v10.171h-4.232zM73.783 12.378l-2.747 9.68h-4.564L64.016 7.235h3.86l1.346 8.671 2.485-8.671h4.21l2.457 8.671 1.348-8.671h3.858l-2.456 14.823h-4.561zM84.278 16.73v-3.463c0-3.062 1.419-6.032 6.638-6.032 5.219 0 6.638 2.97 6.638 6.032v3.462c0 3.062-1.419 6.035-6.638 6.035-5.219 0-6.638-2.973-6.638-6.035m8.932.12v-3.7c0-1.409-.723-2.204-2.291-2.204-1.567 0-2.294.792-2.294 2.201v3.7c0 1.41.723 2.205 2.294 2.205 1.57 0 2.29-.795 2.29-2.204M103.006 13.2v8.858h-4.055V7.532h3.659v1.403a14.874 14.874 0 014.027-1.7v4.057c-1.21.508-2.76 1.252-3.63 1.907M108.733 22.764V1.506l4.28-.624v21.882h-4.28zm8.523-15.094h4.573l-3.801 7.49 3.98 7.592h-4.575l-3.858-7.58 3.681-7.502zM127.893 22.761a18.314 18.314 0 01-5.186-.888l.676-3.277c1.4.434 2.851.66 4.312.672 1.258 0 1.476-.367 1.476-1.255 0-.952-.026-1.073-2.315-1.655-3.461-.885-3.783-1.869-3.783-4.653 0-3.154 1.181-4.47 5.454-4.47 1.46.006 2.915.17 4.341.49l-.416 3.429a22.949 22.949 0 00-3.928-.429c-1.231 0-1.526.34-1.526 1.011 0 .925.118 1.042 1.819 1.44 4.078.95 4.37 1.868 4.37 4.84 0 3.062-1.231 4.748-5.315 4.748"/></g></svg>