<svg width="174" height="32" xmlns="http://www.w3.org/2000/svg"><g fill="#299E37" fill-rule="nonzero"><path d="M22.729.32c.654.28 1.286.602 1.893.962L9.93 9.766 3.062 5.811c.355-.493.736-.965 1.143-1.415l5.724 3.29L22.73.321zm3.449 2.009c.506.384.989.798 1.446 1.237L9.93 13.746 1.353 8.813c.24-.55.51-1.084.806-1.6l7.77 4.465 16.249-9.35zm2.674 2.555c.387.463.748.948 1.082 1.453L9.929 17.834.283 12.286c.116-.615.267-1.218.45-1.807l9.196 5.287L28.852 4.884zm1.97 2.967a16.247 16.247 0 011.811 7.478c0 9.011-7.305 16.317-16.317 16.317C7.306 31.646 0 24.34 0 15.329c0-.374.013-.746.037-1.114l9.892 5.698L30.822 7.851zM54.009 25.683c2.725 0 4.282-.417 5.756-.973l-.695-2.336c-1.307.417-2.725.695-4.588.695-4.367 0-7.815-2.336-7.815-7.703 0-5.256 3.337-7.425 7.286-7.397 2.225 0 3.365.361 4.922.862l.863-2.28c-1.224-.585-2.948-1.14-5.84-1.14-6.452 0-10.29 4.032-10.29 10.233 0 6.035 3.699 10.04 10.4 10.04zm14.683-.083c4.2 0 7.342-2.42 7.342-7.842 0-4.617-2.308-6.424-5.951-6.424-2.142 0-3.894.667-5.173 1.362.167-1.335.529-3.114 1.335-3.893.918-.89 4.672-1.557 8.9-2.28l-.474-2.615c-4.755.89-8.843 1.864-10.373 3.31-1.752 1.64-2.336 6.535-2.336 9.65 0 6.118 2.559 8.732 6.73 8.732zm.223-2.336c-2.781 0-4.144-2.114-4.144-6.647 0-.5.028-1.223.056-1.724 1.362-.695 2.753-1.307 4.505-1.307 2.753 0 3.782 1.863 3.782 4.283 0 2.614-.918 5.395-4.2 5.395zm16.991 2.42c1.975 0 3.783-.334 5.117-.835l-.5-2.252c-1.502.444-2.725.667-4.172.667-2.67 0-4.95-.807-4.977-4.811h9.983v-1.03c0-4.95-1.78-7.647-6.035-7.647-3.81 0-6.869 2.253-6.869 8.26 0 5.868 2.92 7.647 7.453 7.647zm-4.45-9.261c.196-2.976 1.697-4.45 3.7-4.45 2.224 0 3.198 1.752 3.198 4.45h-6.897zm13.1 15.045h2.892v-6.035c.667.084 1.696.223 2.641.223 4.088 0 7.76-2.086 7.76-8.288 0-5.061-2.448-7.564-6.035-7.564-1.864 0-3.06.64-4.366 1.557v-1.195h-2.893v21.302zm5.478-8.148c-1.03 0-2.225-.223-2.586-.279V13.42c.778-.417 1.974-1.14 3.56-1.14 2.92 0 3.893 2.475 3.893 5.228 0 3.393-1.39 5.813-4.867 5.813zm17.325 2.28c4.2 0 7.342-2.42 7.342-7.842 0-4.617-2.308-6.424-5.951-6.424-2.142 0-3.894.667-5.173 1.362.167-1.335.529-3.114 1.335-3.893.918-.89 4.672-1.557 8.9-2.28l-.474-2.615c-4.755.89-8.843 1.864-10.373 3.31-1.752 1.64-2.336 6.535-2.336 9.65 0 6.118 2.559 8.732 6.73 8.732zm.223-2.336c-2.781 0-4.144-2.114-4.144-6.647 0-.5.028-1.223.056-1.724 1.362-.695 2.753-1.307 4.505-1.307 2.753 0 3.782 1.863 3.782 4.283 0 2.614-.918 5.395-4.2 5.395zm13.932 2.336c2.42 0 3.977-1.196 4.923-1.919.278 1.363 1.807 1.836 3.365 1.836.194 0 .5-.028.695-.056l.111-2.225c-.778-.028-1.585-.222-1.585-1.168v-7.926c0-3.087-2.002-4.366-5.645-4.366-2.225 0-3.921.445-5.34 1.03l.612 2.196c1.307-.445 2.642-.723 4.255-.723 2.225 0 3.281.556 3.281 2.642v1.64l-3.309.056c-2.642.028-6.035.807-6.035 4.645 0 2.808 1.864 4.338 4.672 4.338zm.751-2.308c-1.474 0-2.586-.695-2.586-2.225 0-1.557 1.196-2.447 3.282-2.503l3.225-.139v3.504c-1.084.695-2.558 1.363-3.92 1.363zm11.124 2.058h2.92v-6.452h7.147v6.452h2.92V10.166h-2.92v6.424h-7.147v-6.424h-2.92V25.35zm29.45.25l.501-2.17c-1.223-.333-2.447-1.223-3.782-2.752l-2.892-3.338 6.062-7.174h-3.281l-5.924 7.397 4.2 5.173c2.002 2.447 3.698 2.78 5.117 2.864zm-12.347-.25h2.92V10.166h-2.92V25.35z"/></g></svg>