<svg width="212" height="25" xmlns="http://www.w3.org/2000/svg"><g fill="#E30613" fill-rule="evenodd"><path d="M54.578 7.483h5.953V23.01h6.377V7.483h5.953V1.74H54.578zM86.465 7.483h9.355V1.74h-9.354c-8.595 0-13.183 4.275-13.183 10.635 0 6.36 4.588 10.636 13.183 10.636h9.354v-5.744h-9.355c-3.976 0-6.592-1.422-6.592-4.892 0-3.47 2.616-4.892 6.592-4.892zM41.608 1.74l-3.4 12.696-3.4-12.696H23.54v21.27h6.377V5.71l4.634 17.302h7.312L46.5 5.698V23.01h6.378V1.74zM8.66 24.287c-5.878 0-8.503-4.719-8.503-9.397 0-3.196 1.08-6.876 2.888-9.849C4.781 2.171 6.885.463 8.66.463c1.77 0 3.874 1.707 5.625 4.578 1.8 2.973 2.879 6.653 2.879 9.849 0 4.678-2.63 9.397-8.504 9.397zM102.198 12.385V1.74h3.084v6.263l3.376-6.263h3.454v10.645h-3.083V6.121l-3.378 6.264zM120.484 12.385v-4.12h-3.44v4.12h-3.083V1.74h3.083v3.903h3.44V1.74h3.083v10.645zM130.212 7.896h-1.789v2.33h1.79c.77 0 1.217-.34 1.217-.957v-.432c0-.587-.447-.941-1.218-.941zm-.139-3.997h-1.65v2.022h1.65c.694 0 1.11-.31 1.11-.88v-.308c0-.525-.416-.834-1.11-.834zm.91 8.486h-5.566V1.74h5.72c2.02 0 3.208.91 3.208 2.591 0 1.019-.417 1.975-1.789 2.423 1.496.4 2.036 1.327 2.036 2.468 0 2.006-1.203 3.163-3.609 3.163zM135.977 12.385V1.74h8.08v2.545h-4.996v1.389h3.717v2.468h-3.717V9.84h5.012v2.546zM145.074 7.016c0-4.166 1.897-5.508 5.058-5.508 2.899 0 4.688 1.019 4.95 3.919h-3.162c-.123-1.203-.801-1.45-1.788-1.45-1.08 0-1.897.262-1.897 2.129v1.882c0 1.867.787 2.16 1.897 2.16.971 0 1.634-.293 1.803-1.48h3.162c-.308 2.87-2.066 3.95-4.965 3.95-3.161 0-5.058-1.266-5.058-5.602zM162.004 4.362v8.023h-3.084V4.362h-3.208V1.74h9.515v2.622zM166.459 12.385V1.74h3.083v6.263l3.378-6.263h3.454v10.645h-3.085V6.121l-3.376 6.264zM181.307 1.74v8.022h3.284V1.74h3.084v8.022h1.387V14.7h-2.93v-2.315h-7.91V1.74zM190.217 12.385V1.74h3.083v6.263l3.378-6.263h3.454v10.645h-3.084V6.121l-3.377 6.264zM201.98 12.385V1.74h3.085v6.263l3.376-6.263h3.454v10.645h-3.084V6.121l-3.376 6.264z"/></g></svg>