<svg width="114" height="32" viewBox="0 0 114 32" fill="none" xmlns="http://www.w3.org/2000/svg">
<path fill-rule="evenodd" clip-rule="evenodd" d="M104.425 20.8069C105.829 20.8845 106.183 20.8069 107.293 20.8069H108.68C109.251 20.8069 109.836 20.8694 110.407 20.8694C111.04 20.8694 111.656 20.8069 112.288 20.8069C112.581 20.8069 112.612 20.9309 112.612 21.0397C112.612 21.2413 112.519 21.2726 112.319 21.2877C111.856 21.3189 111.101 21.1949 111.101 22.2351V29.7795C111.101 31.3791 111.625 31.1463 112.319 31.1926C112.519 31.2078 112.612 31.239 112.612 31.4416C112.612 31.5495 112.581 31.6744 112.288 31.6744C111.656 31.6744 111.024 31.5807 110.392 31.5807C109.775 31.5807 109.143 31.6744 108.511 31.6744C108.449 31.6744 108.187 31.6583 108.187 31.4416C108.187 31.2239 108.357 31.2078 108.495 31.1926C109.189 31.1463 109.713 31.364 109.713 29.7795V22.2351C109.713 21.3922 109.257 21.3384 108.655 21.3352L107.524 21.335C106.383 21.335 106.522 21.6304 106.353 23.8498C106.245 25.2317 106.121 26.4886 105.813 27.9632C105.489 29.5164 104.75 32 102.93 32C102.453 32 102.005 31.7359 102.005 31.1926C102.005 30.5405 102.483 30.3077 102.869 30.3077C103.192 30.3077 103.33 30.4317 103.423 30.4941C103.516 30.5556 103.655 30.6342 103.763 30.6342C104.518 30.6342 105.629 27.8705 105.629 22.7472C105.629 21.3378 105.162 21.3035 104.616 21.2965L104.497 21.2949C104.438 21.2938 104.378 21.292 104.317 21.2877C104.179 21.2726 104.009 21.2574 104.009 21.0397C104.009 20.9621 104.055 20.7918 104.425 20.8069ZM40.1035 20.6367C40.689 20.6367 41.1364 21.0399 41.1364 21.6296C41.1364 22.2041 40.658 22.4833 40.2726 22.4833C39.8412 22.4833 39.6871 22.1728 39.579 21.9561C39.5019 21.8009 39.4248 21.6457 39.2086 21.6457C38.8083 21.6457 38.6541 22.3129 38.4539 22.9026L38.0686 24.0667C37.9755 24.3621 37.4981 25.6815 36.1568 25.9607V26.0232C37.467 26.1784 38.1607 27.141 38.531 27.7155L39.9333 29.9047C40.5659 30.8975 40.8742 31.1777 41.3827 31.1928H41.6139C41.8911 31.1928 41.9072 31.3793 41.9072 31.4408C41.9072 31.5497 41.8761 31.6585 41.5828 31.6736H41.1665C40.9823 31.6736 40.8121 31.6736 40.627 31.6898C40.5199 31.6898 40.3957 31.7049 40.2886 31.7049C39.3478 31.7049 38.9784 31.0689 38.7162 30.6345L37.1587 28.041C36.1408 26.3497 35.4321 26.2409 34.8306 26.2409C34.4302 26.2409 34.3371 26.2711 34.2911 26.3023C34.199 26.38 34.214 26.5664 34.214 26.6602V29.7797C34.214 31.3793 34.7385 31.1465 35.4321 31.1928C35.6323 31.208 35.7254 31.2392 35.7254 31.4408C35.7254 31.5497 35.6944 31.6736 35.4011 31.6736C34.7695 31.6736 34.1519 31.5809 33.5203 31.5809C32.8888 31.5809 32.2712 31.6736 31.6396 31.6736C31.5315 31.6736 31.3153 31.6585 31.3153 31.4408C31.3153 31.2241 31.5005 31.1928 31.6246 31.1928C32.3022 31.1465 32.8267 31.3632 32.8267 29.7797V22.701C32.8267 21.1014 32.3022 21.3342 31.6086 21.2879C31.4084 21.2728 31.3153 21.2415 31.3153 21.0399C31.3153 20.9311 31.3463 20.8071 31.6396 20.8071C32.2712 20.8071 32.8888 20.8998 33.5203 20.8998C34.1519 20.8998 34.7695 20.8071 35.4011 20.8071C35.5092 20.8071 35.7254 20.8222 35.7254 21.0399C35.7254 21.2576 35.5402 21.2879 35.4171 21.2879C34.7385 21.3342 34.214 21.1175 34.214 22.701L34.2138 25.4627C34.2155 25.6892 34.2549 25.7752 34.8306 25.7752H35.1699C35.8946 25.7752 36.9125 25.4023 37.5441 23.6485L38.0065 22.3754C38.562 20.8696 39.4559 20.6367 40.1035 20.6367ZM96.3183 20.4962C96.5335 20.4962 96.5645 20.6827 96.6105 20.8379C96.6168 20.8597 96.6285 20.897 96.6441 20.9446L96.7007 21.1131C96.7652 21.3021 96.8486 21.5368 96.9038 21.6765L100.126 30.1371C100.449 31.006 100.742 31.131 101.267 31.1773C101.513 31.2086 101.698 31.1924 101.698 31.4565C101.698 31.6581 101.544 31.6742 101.328 31.6742L100.912 31.6596L100.08 31.5951C99.9411 31.5864 99.8023 31.5805 99.6634 31.5805C99.0158 31.5805 98.3682 31.6742 97.7206 31.6742C97.4283 31.6742 97.2121 31.643 97.2121 31.395C97.2121 31.1612 97.4283 31.131 97.5364 31.131H97.8747C98.153 31.1461 98.6454 31.131 98.6454 30.6955C98.6454 30.6028 98.6454 30.4476 98.5223 30.122L97.7516 28.0416C97.6085 27.6523 97.4653 27.6645 97.3222 27.6682L94.5296 27.6687C94.0512 27.6687 94.0982 27.7776 94.0211 27.9943L93.3275 30.0746C93.2804 30.2147 93.2344 30.4163 93.2344 30.5564C93.2344 31.006 93.6358 31.1461 94.3755 31.1773C94.6988 31.2086 94.7758 31.2549 94.7758 31.4414C94.7758 31.5493 94.7458 31.6742 94.4525 31.6742C93.9281 31.6742 93.3885 31.5805 92.8651 31.5805C92.3866 31.5805 91.9092 31.643 91.4307 31.6742C91.3697 31.6742 91.3076 31.6894 91.2456 31.6742C90.9993 31.643 90.9843 31.4878 90.9843 31.4414C90.9843 31.2862 90.9993 31.1773 91.5078 31.1612C91.9242 31.1461 92.2325 31.1924 92.6489 30.0908L95.6246 22.0646C95.7628 21.7078 96.009 20.9307 96.056 20.7916C96.1021 20.6515 96.1331 20.4962 96.3183 20.4962ZM47.5477 20.4962C47.7629 20.4962 47.7939 20.6827 47.84 20.8379C47.8462 20.8597 47.8579 20.897 47.8735 20.9446L47.9301 21.1131C47.9946 21.3021 48.078 21.5368 48.1332 21.6765L51.3552 30.1371C51.6795 31.006 51.9718 31.131 52.4963 31.1773C52.7425 31.2086 52.9277 31.1924 52.9277 31.4565C52.9277 31.6581 52.7736 31.6742 52.5574 31.6742C52.0028 31.6742 51.4473 31.5805 50.8928 31.5805C50.2452 31.5805 49.5976 31.6742 48.95 31.6742C48.6577 31.6742 48.4415 31.643 48.4415 31.395C48.4415 31.1612 48.6577 31.131 48.7648 31.131H49.1041C49.3824 31.1461 49.8749 31.131 49.8749 30.6955C49.8749 30.6028 49.8749 30.4476 49.7518 30.122L48.981 28.0416C48.8379 27.6523 48.6948 27.6645 48.5516 27.6682L45.759 27.6687C45.2816 27.6687 45.3276 27.7776 45.2506 27.9943L44.5569 30.0746C44.5109 30.2147 44.4638 30.4163 44.4638 30.5564C44.4638 31.006 44.8652 31.1461 45.6049 31.1773C45.9282 31.2086 46.0063 31.2549 46.0063 31.4414C46.0063 31.5493 45.9752 31.6742 45.682 31.6742C45.1575 31.6742 44.618 31.5805 44.0945 31.5805C43.616 31.5805 43.1386 31.643 42.6602 31.6742C42.5991 31.6742 42.537 31.6894 42.475 31.6742C42.2288 31.643 42.2137 31.4878 42.2137 31.4414C42.2137 31.2862 42.2288 31.1773 42.7372 31.1612C43.1536 31.1461 43.4619 31.1924 43.8783 30.0908L46.8541 22.0646C46.9922 21.7078 47.2394 20.9307 47.2855 20.7916C47.3315 20.6515 47.3625 20.4962 47.5477 20.4962ZM81.751 20.31V20.4964C81.7797 20.783 82.0966 20.8051 82.2546 20.8067L89.305 20.8069C89.6744 20.8069 89.7525 20.7444 89.8295 20.4964C89.9066 20.2787 89.9366 20.1235 90.1218 20.1235C90.4151 20.1235 90.369 20.4964 90.369 20.6678L90.307 22.1112C90.276 22.8873 90.276 23.2128 90.0297 23.2128C89.7835 23.2128 89.7675 22.9185 89.6904 22.6232C89.5213 22.1112 89.213 21.335 88.4262 21.335H86.5915C86.4224 21.335 86.1912 21.3038 86.1912 21.6455V29.7795C86.1912 31.0223 86.4684 31.1614 87.2391 31.1775C87.5324 31.1926 87.8097 31.1463 87.8097 31.4416C87.8097 31.5495 87.7786 31.6744 87.4854 31.6744C86.8227 31.6744 86.1751 31.5807 85.5125 31.5807C84.8499 31.5807 84.1713 31.6744 83.5087 31.6744C83.2154 31.6744 83.1844 31.5495 83.1844 31.4416C83.1844 31.239 83.2774 31.2078 83.4776 31.1926C84.2483 31.1312 84.8039 31.3791 84.8039 29.7795V21.6455C84.8039 21.3552 84.6449 21.3357 84.1119 21.3349L83.894 21.335L83.6637 21.3353C82.6522 21.3395 81.9666 21.4142 81.1345 22.7008C80.9493 22.9961 80.9032 23.2441 80.672 23.2441C80.5639 23.2441 80.4558 23.1513 80.4558 23.0274C80.4558 22.9336 80.4708 22.8248 80.5639 22.5143L81.1805 20.434C81.2642 20.1517 81.3992 20.1136 81.481 20.109L81.5038 20.1084C81.5819 20.1084 81.72 20.1084 81.751 20.31ZM78.8237 20.8065C78.9318 20.8065 79.148 20.8226 79.148 21.0393C79.148 21.257 78.9628 21.2883 78.8387 21.2883C78.1611 21.3346 77.6366 21.1169 77.6366 22.7014V29.7801C77.6366 31.3787 78.1611 31.1459 78.8547 31.1922C79.0549 31.2084 79.148 31.2396 79.148 31.4412C79.148 31.5501 79.117 31.674 78.8237 31.674C78.1921 31.674 77.5745 31.5813 76.9429 31.5813L76.4716 31.5958L75.5341 31.6595C75.3775 31.6682 75.2203 31.674 75.0622 31.674C74.9541 31.674 74.7389 31.6589 74.7389 31.4412C74.7389 31.2235 74.9241 31.1922 75.0472 31.1922C75.7248 31.1459 76.2493 31.3636 76.2493 29.7801V23.3999L70.4369 29.64V29.9353C70.4369 31.0993 70.8685 31.1732 71.3264 31.1825L71.4917 31.1849C71.5467 31.1859 71.6014 31.1878 71.655 31.1922C71.8552 31.2084 71.9483 31.2396 71.9483 31.4412C71.9483 31.5501 71.9173 31.674 71.624 31.674L71.1526 31.6595L70.2152 31.5958C70.0585 31.5871 69.9014 31.5813 69.7432 31.5813C69.1117 31.5813 68.4951 31.674 67.8625 31.674C67.7544 31.674 67.5392 31.6589 67.5392 31.4412C67.5392 31.2235 67.7244 31.1922 67.8475 31.1922C68.5251 31.1459 69.0496 31.3636 69.0496 29.7801V22.7014C69.0496 21.1018 68.5251 21.3346 67.8315 21.2883C67.6313 21.2722 67.5392 21.2419 67.5392 21.0393C67.5392 20.9315 67.5702 20.8065 67.8625 20.8065C68.4951 20.8065 69.1117 20.9002 69.7432 20.9002L70.2152 20.8856L71.1526 20.8211C71.3091 20.8123 71.4661 20.8065 71.624 20.8065C71.7321 20.8065 71.9483 20.8226 71.9483 21.0393C71.9483 21.257 71.7631 21.2883 71.64 21.2883C70.9614 21.3346 70.4369 21.1169 70.4369 22.7014V28.7863L76.2493 22.5301V22.4676C76.2493 21.4121 75.8252 21.3203 75.3712 21.3021L75.2573 21.2985C75.1812 21.2965 75.1052 21.2945 75.0312 21.2883C74.831 21.2722 74.7389 21.2419 74.7389 21.0393C74.7389 20.9315 74.7689 20.8065 75.0622 20.8065L75.5341 20.8211L76.4716 20.8856C76.6281 20.8944 76.785 20.9002 76.9429 20.9002C77.5745 20.9002 78.1921 20.8065 78.8237 20.8065ZM60.7421 20.8071L61.4244 20.8216L62.7888 20.8853C63.0161 20.894 63.2434 20.8998 63.4706 20.8998L63.9449 20.8853L64.8931 20.8216C65.0512 20.8129 65.2092 20.8071 65.3674 20.8071C65.4755 20.8071 65.6907 20.8222 65.6907 21.0399C65.6907 21.2576 65.5065 21.2879 65.3824 21.2879C64.7048 21.3342 64.1803 21.1175 64.1803 22.701V29.7797C64.1803 31.3793 64.7048 31.1465 65.3984 31.1928C65.5986 31.208 65.6907 31.2392 65.6907 31.4408C65.6907 31.5497 65.6607 31.6736 65.3674 31.6736L64.8955 31.6591L63.958 31.5954C63.8015 31.5867 63.6445 31.5809 63.4866 31.5809C62.854 31.5809 62.2375 31.6736 61.6059 31.6736C61.4978 31.6736 61.2816 31.6585 61.2816 31.4408C61.2816 31.2241 61.4667 31.1928 61.5899 31.1928C62.2685 31.1465 62.793 31.3632 62.793 29.7797L62.7933 22.5454C62.7915 21.7465 62.7023 21.3342 60.634 21.3342H59.0465C57.0205 21.3342 56.9055 21.7245 56.9027 22.4815L56.903 22.611L56.9032 22.6445L56.9035 29.7797C56.9035 31.3793 57.428 31.1465 58.1216 31.1928C58.3218 31.208 58.4149 31.2392 58.4149 31.4408C58.4149 31.5497 58.3839 31.6736 58.0906 31.6736C57.459 31.6736 56.8414 31.5809 56.2099 31.5809L55.7384 31.5954L54.8006 31.6591C54.644 31.6678 54.487 31.6736 54.3291 31.6736C54.221 31.6736 54.0048 31.6585 54.0048 31.4408C54.0048 31.2241 54.19 31.1928 54.3141 31.1928C54.9917 31.1465 55.5162 31.3632 55.5162 29.7797V22.701C55.5162 21.1014 54.9917 21.3342 54.2981 21.2879C54.0979 21.2728 54.0048 21.2415 54.0048 21.0399C54.0048 20.9311 54.0358 20.8071 54.3291 20.8071L54.8006 20.8216L55.7384 20.8853C55.8949 20.894 56.052 20.8998 56.2099 20.8998C57.1197 20.8998 58.0286 20.8071 58.9544 20.8071H60.7421ZM95.8248 23.0886C95.7477 23.0886 95.7317 23.1663 95.7017 23.2751L94.4215 26.815C94.3755 26.9551 94.3755 27.0166 94.3755 27.0629C94.3755 27.1103 94.4215 27.1405 94.4986 27.1405H97.089C97.2271 27.1405 97.4123 27.1254 97.2742 26.7686L95.9479 23.2751C95.9019 23.1663 95.9019 23.0886 95.8248 23.0886ZM47.0542 23.0886C46.9772 23.0886 46.9612 23.1663 46.9311 23.2751L45.6509 26.815C45.6049 26.9551 45.6049 27.0166 45.6049 27.0629C45.6049 27.1103 45.6509 27.1405 45.728 27.1405H48.3184C48.4565 27.1405 48.6417 27.1254 48.5036 26.7686L47.1774 23.2751C47.1313 23.1663 47.1313 23.0886 47.0542 23.0886ZM37.2509 0.37223C38.1758 0.37223 39.44 0.589944 40.3188 0.946753C40.55 1.04049 40.612 1.07174 40.6731 1.78535L40.7352 2.48385C40.7662 2.90315 40.7662 3.10474 40.535 3.10474C40.3348 3.10474 40.3348 2.94952 40.0415 2.48385C39.3629 1.31969 38.5461 0.838904 37.1899 0.838904C34.5074 0.838904 32.6877 3.02713 32.6877 6.0086C32.6877 9.45473 34.7846 11.4262 37.1588 11.4262C37.6673 11.4262 38.2378 11.3325 38.7623 10.9918C39.6562 10.4012 40.0105 9.48597 40.3348 8.89532C40.3808 8.80259 40.4419 8.70986 40.581 8.70986C40.8369 8.70986 40.8276 9.0332 40.7914 9.38863L40.7736 9.55389C40.7646 9.6366 40.7562 9.71864 40.7512 9.79642L40.7201 10.3548C40.7041 10.6028 40.7201 10.883 40.0565 11.2085C39.6251 11.4101 38.4691 11.8919 36.9426 11.8919C33.8437 11.8919 31.1462 9.59382 31.1462 6.21019C31.1462 3.13599 33.5815 0.37223 37.2509 0.37223ZM62.3453 0.37223C63.2701 0.37223 64.5343 0.589944 65.4131 0.946753C65.6443 1.04049 65.7064 1.07174 65.7675 1.78535L65.8295 2.48385C65.8605 2.90315 65.8605 3.10474 65.6293 3.10474C65.4291 3.10474 65.4291 2.94952 65.1359 2.48385C64.4572 1.31969 63.6405 0.838904 62.2842 0.838904C59.6017 0.838904 57.782 3.02713 57.782 6.0086C57.782 9.45473 59.879 11.4262 62.2532 11.4262C62.7617 11.4262 63.3322 11.3325 63.8557 10.9918C64.7505 10.4012 65.1048 9.48597 65.4291 8.89532C65.4752 8.80259 65.5362 8.70986 65.6754 8.70986C66.0297 8.70986 65.8755 9.32974 65.8445 9.79642L65.8145 10.3548C65.7985 10.6028 65.8145 10.883 65.1509 11.2085C64.7195 11.4101 63.5634 11.8919 62.037 11.8919C58.9381 11.8919 56.2406 9.59382 56.2406 6.21019C56.2406 3.13599 58.6759 0.37223 62.3453 0.37223ZM86.4998 0.838904C86.4998 0.96288 86.4848 1.08686 86.4848 1.31969L86.4688 2.04943C86.4528 2.7943 86.4848 2.82554 86.4688 2.96464C86.4688 3.02713 86.4378 3.19747 86.2997 3.19747C86.1145 3.19747 86.0374 3.01201 85.9753 2.84066C85.4979 1.55252 85.1426 1.22595 82.7994 1.22595C81.4271 1.22595 81.3811 1.31969 81.3811 1.84785V4.84343C81.3811 5.09239 81.3661 5.32522 81.8905 5.32522H83.401C84.542 5.32522 84.7272 4.67309 84.8193 4.31628C84.8813 4.06732 84.9574 3.94334 85.1125 3.94334C85.2357 3.94334 85.3278 4.03607 85.3278 4.23867C85.3278 4.50759 85.3012 4.64567 85.2714 4.7878L85.2575 4.85417C85.1946 5.15857 85.1331 5.56993 85.2817 7.29674C85.3127 7.57594 85.3438 7.84002 85.0965 7.84002C84.8343 7.84002 84.8193 7.56082 84.7112 7.14152C84.511 6.27167 84.2648 5.85237 82.7994 5.85237H81.7204C81.4038 5.85237 81.3806 6.03528 81.3805 6.20496L81.3811 9.37712L81.3818 9.5255C81.3909 10.2476 81.5046 11.0221 82.8464 11.0221H83.9555C85.6521 11.0221 86.0835 10.2147 86.4528 9.22189C86.5309 9.03543 86.5919 8.84896 86.7621 8.84896C86.8231 8.84896 86.9463 8.86408 86.9463 9.08179C86.9463 9.5787 86.7771 9.64019 86.654 11.0997C86.5919 11.6903 86.4848 11.5815 86.2376 11.5815L84.3258 11.5653C82.6613 11.5502 81.6123 11.4726 80.8726 11.4726L80.3661 11.4871L79.3592 11.5509C79.191 11.5595 79.0224 11.5653 78.8527 11.5653C78.7446 11.5653 78.4834 11.5653 78.4834 11.3325C78.4834 11.1158 78.6686 11.0846 78.7917 11.0846C79.4693 11.0382 79.9938 11.2549 79.9938 9.67143V2.59271C79.9938 0.993118 79.4693 1.22595 78.7757 1.17959C78.5755 1.16447 78.4834 1.13322 78.4834 0.931634C78.4834 0.822777 78.5134 0.698801 78.8067 0.698801C79.3462 0.698801 79.8707 0.745166 80.4102 0.745166H83.6942C84.2177 0.745166 85.3438 0.729039 85.7441 0.71392C86.4528 0.667555 86.4998 0.667555 86.4998 0.838904ZM108.326 0.388055C108.541 0.388055 108.572 0.574523 108.619 0.729744C108.65 0.838601 108.82 1.33551 108.912 1.56835L112.134 10.0289C112.457 10.8978 112.75 11.0228 113.275 11.0691C113.521 11.1004 113.706 11.0843 113.706 11.3483C113.706 11.5499 113.552 11.566 113.336 11.566C112.781 11.566 112.226 11.4723 111.671 11.4723C111.024 11.4723 110.376 11.566 109.729 11.566C109.436 11.566 109.22 11.5348 109.22 11.2868C109.22 11.053 109.436 11.0228 109.544 11.0228H109.883C110.16 11.0379 110.653 11.0228 110.653 10.5873C110.653 10.4946 110.653 10.3394 110.53 10.0138L109.76 7.93244C109.605 7.51415 109.451 7.56052 109.297 7.56052H106.538C106.06 7.56052 106.106 7.66937 106.029 7.88608L105.335 9.96645C105.288 10.1066 105.242 10.3081 105.242 10.4482C105.242 10.8978 105.644 11.0379 106.383 11.0691C106.707 11.1004 106.784 11.1467 106.784 11.3332C106.784 11.4411 106.754 11.566 106.461 11.566C105.936 11.566 105.397 11.4723 104.873 11.4723C104.395 11.4723 103.917 11.5348 103.439 11.566C103.378 11.566 103.316 11.5812 103.254 11.566C103.007 11.5348 102.992 11.3796 102.992 11.3332C102.992 11.178 103.007 11.0691 103.516 11.053C103.932 11.0379 104.24 11.0843 104.657 9.98258L107.633 1.9564C107.771 1.59858 108.017 0.822474 108.064 0.683379L108.094 0.589607C108.131 0.481954 108.182 0.388055 108.326 0.388055ZM53.9142 0.698196C54.0223 0.698196 54.2385 0.714323 54.2385 0.931029C54.2385 1.14874 54.0534 1.17999 53.9302 1.17999C53.2516 1.22635 52.7271 1.00864 52.7271 2.59311V9.67183C52.7271 11.2704 53.2516 11.0376 53.9453 11.084C54.1454 11.1001 54.2385 11.1313 54.2385 11.3329C54.2385 11.4418 54.2075 11.5657 53.9142 11.5657C53.2826 11.5657 52.6661 11.473 52.0335 11.473C51.4019 11.473 50.7853 11.5657 50.1527 11.5657C50.0446 11.5657 49.8294 11.5506 49.8294 11.3329C49.8294 11.1152 50.0136 11.084 50.1377 11.084C50.8153 11.0376 51.3398 11.2553 51.3398 9.67183V3.29161L45.5274 9.53173V9.82706C45.5274 10.9911 45.959 11.0649 46.4169 11.0742L46.5271 11.0757L46.6371 11.0779C46.6735 11.0791 46.7098 11.081 46.7456 11.084C46.9457 11.1001 47.0388 11.1313 47.0388 11.3329C47.0388 11.4418 47.0078 11.5657 46.7145 11.5657C46.0829 11.5657 45.4664 11.473 44.8338 11.473C44.2022 11.473 43.5856 11.5657 42.953 11.5657C42.8449 11.5657 42.6297 11.5506 42.6297 11.3329C42.6297 11.1152 42.8149 11.084 42.938 11.084C43.6156 11.0376 44.1401 11.2553 44.1401 9.67183V2.59311C44.1401 0.993521 43.6156 1.22635 42.922 1.17999C42.7218 1.16386 42.6297 1.13362 42.6297 0.931029C42.6297 0.82318 42.6608 0.698196 42.953 0.698196C43.5856 0.698196 44.2022 0.791934 44.8338 0.791934C45.4664 0.791934 46.0829 0.698196 46.7145 0.698196C46.8226 0.698196 47.0388 0.714323 47.0388 0.931029C47.0388 1.14874 46.8537 1.17999 46.7305 1.17999C46.0519 1.22635 45.5274 1.00864 45.5274 2.59311V8.67801L51.3398 2.42176V2.35927C51.3398 1.30376 50.9158 1.212 50.4617 1.19378L50.3478 1.19024C50.2717 1.18821 50.1958 1.18617 50.1217 1.17999C49.9215 1.16386 49.8294 1.13362 49.8294 0.931029C49.8294 0.82318 49.8594 0.698196 50.1527 0.698196C50.7853 0.698196 51.4019 0.791934 52.0335 0.791934C52.6661 0.791934 53.2826 0.698196 53.9142 0.698196ZM90.8458 0.729644C91.077 0.729644 91.3232 0.729644 91.5544 0.714525C91.6936 0.714525 91.8167 0.698398 91.9558 0.698398C92.125 0.698398 92.125 0.698398 92.2331 0.977596L95.3009 8.70946C95.347 8.83344 95.378 8.89593 95.409 8.89593C95.4391 8.89593 95.4711 8.83344 95.5171 8.70946L98.8162 0.899985C98.8622 0.792136 98.8462 0.698398 99.2476 0.698398C99.664 0.698398 99.9873 0.729644 100.327 0.729644C100.681 0.729644 101.051 0.698398 101.422 0.698398C101.714 0.698398 101.745 0.823382 101.745 0.931231C101.745 1.16406 101.637 1.16406 101.19 1.19531C100.45 1.22656 100.265 1.36666 100.296 2.35947L100.558 9.96736C100.589 10.8674 100.82 11.0539 101.437 11.069C101.899 11.1003 101.976 11.1154 101.976 11.3331C101.976 11.441 101.945 11.5659 101.653 11.5659L101.176 11.5513L100.217 11.4869C100.058 11.4781 99.899 11.4722 99.7411 11.4722C99.1085 11.4722 98.4919 11.5659 97.8603 11.5659C97.5821 11.5659 97.521 11.4258 97.521 11.3331C97.521 11.1154 97.6901 11.1003 97.8293 11.0842C97.8895 11.0799 97.9503 11.0779 98.0109 11.0765L98.1318 11.0741C98.6938 11.0624 99.2096 11.0156 99.1705 9.67204L98.9703 2.40584C98.9703 2.28186 98.9393 2.20425 98.9083 2.20425C98.8773 2.20425 98.8162 2.25162 98.7691 2.3756L95.4711 10.2153C95.2088 10.8362 95.2859 10.7122 95.1468 11.0227C95.1158 11.1003 95.0697 11.193 94.9616 11.193C94.8535 11.193 94.8075 11.1003 94.7764 11.0227C94.6994 10.8362 94.6223 10.6346 94.4531 10.2153L91.3232 2.42197C91.2772 2.29799 91.1841 2.32924 91.1841 2.46833L90.8458 9.39183C90.7527 11.2394 91.3232 11.0539 92.156 11.0842C92.3102 11.0842 92.3872 11.1154 92.4183 11.1466C92.4483 11.1779 92.4793 11.2394 92.4793 11.3331C92.4793 11.441 92.4483 11.5659 92.156 11.5659L91.7489 11.5513L90.9286 11.4869C90.7922 11.4781 90.6564 11.4722 90.5215 11.4722L90.1401 11.4869L89.377 11.5513C89.2497 11.5601 89.1224 11.5659 88.9951 11.5659C88.8719 11.5659 88.6567 11.5498 88.6567 11.3331C88.6567 11.1305 88.8259 11.0842 88.965 11.0842C89.5966 11.0539 90.0751 11.2555 90.1822 9.60954L90.6916 2.29799C90.7217 1.78495 90.7687 1.22656 90.0591 1.18019C89.8589 1.16406 89.6737 1.18019 89.4735 1.18019C89.1962 1.18019 89.1802 0.993722 89.1802 0.931231C89.1802 0.838501 89.2113 0.698398 89.5045 0.698398C89.9359 0.698398 89.8589 0.729644 90.8458 0.729644ZM68.4794 0.201587V0.388055C68.508 0.674618 68.8249 0.696662 68.9829 0.698357L76.0334 0.698498C76.4037 0.698498 76.4808 0.636007 76.5579 0.388055C76.635 0.170341 76.665 0.015119 76.8502 0.015119C77.1434 0.015119 77.0974 0.388055 77.0974 0.559404L77.0353 2.00277C77.0043 2.77887 77.0043 3.10444 76.7581 3.10444C76.5118 3.10444 76.4958 2.81012 76.4188 2.5148C76.2496 2.00277 75.9403 1.22666 75.1546 1.22666H73.3199C73.1507 1.22666 72.9195 1.19541 72.9195 1.5371V9.67113C72.9195 10.9139 73.1968 11.053 73.9675 11.0691C74.2608 11.0843 74.538 11.0379 74.538 11.3332C74.538 11.4411 74.507 11.566 74.2147 11.566C73.5511 11.566 72.9035 11.4723 72.2409 11.4723C71.5783 11.4723 70.8996 11.566 70.237 11.566C69.9437 11.566 69.9127 11.4411 69.9127 11.3332C69.9127 11.1306 70.0058 11.1004 70.206 11.0843C70.9767 11.0228 71.5312 11.2707 71.5312 9.67113V1.5371C71.5312 1.24681 71.373 1.2273 70.8402 1.22655L70.6224 1.22666C69.4813 1.22666 68.7566 1.21053 67.8628 2.59241C67.6776 2.88773 67.6316 3.13568 67.4004 3.13568C67.2923 3.13568 67.1842 3.04295 67.1842 2.91898C67.1842 2.82524 67.1992 2.71638 67.2923 2.40594L67.9088 0.325563C67.9926 0.0433412 68.1276 0.00518961 68.2093 0.000585374L68.2321 0C68.3092 0 68.4483 0 68.4794 0.201587ZM107.833 2.98046C107.756 2.98046 107.74 3.05807 107.71 3.16693L106.429 6.70679C106.383 6.84589 106.383 6.90838 106.383 6.95475C106.383 7.00212 106.429 7.03236 106.507 7.03236H109.097C109.235 7.03236 109.42 7.01724 109.282 6.65942L107.956 3.16693C107.91 3.05807 107.91 2.98046 107.833 2.98046Z" fill="#233375"/>
<path fill-rule="evenodd" clip-rule="evenodd" d="M24.3835 23.6694C24.3366 23.4566 24.1418 23.3096 23.9255 23.3096H16.8426C16.7509 23.3096 16.6732 23.2389 16.6662 23.1466C16.3617 19.051 13.0826 15.7823 9.01466 15.553V8.22979C9.01466 5.69708 10.2934 3.4619 12.2309 2.14939C12.3306 2.08216 12.4607 2.08216 12.5604 2.14989C14.4944 3.45989 15.7717 5.69006 15.7761 8.21725C15.7766 8.44102 15.9296 8.6412 16.1479 8.68184C16.2481 8.70041 16.3428 8.68536 16.4245 8.64672H23.7162C23.7745 8.67432 23.8393 8.68987 23.9081 8.68987C24.1602 8.68987 24.365 8.48366 24.365 8.22979C24.365 8.21825 24.3645 8.20721 24.3645 8.19567C24.3645 8.19266 24.365 8.18965 24.365 8.18714C24.365 8.18213 24.364 8.17761 24.364 8.17259C24.3336 3.66109 20.6982 0 16.2331 0C14.9011 0 13.6427 0.326121 12.5319 0.903104C12.4462 0.947758 12.3446 0.947758 12.2589 0.903104C11.1481 0.326121 9.88975 0 8.55818 0C4.07412 0 0.42627 3.69169 0.42627 8.22979C0.42627 12.6129 3.82894 16.2057 8.1012 16.4465V23.1315C8.1012 23.2299 8.02197 23.3096 7.9238 23.3096H0.882749C0.630091 23.3096 0.42627 23.5183 0.42627 23.7727C0.427765 28.3093 4.07512 32 8.55818 32C9.88975 32 11.1481 31.6739 12.2589 31.0964C12.3446 31.0517 12.4462 31.0517 12.5319 31.0964C13.6427 31.6739 14.9011 32 16.2331 32C20.6614 32 24.2738 28.3981 24.3625 23.9378C24.3939 23.857 24.4044 23.7652 24.3835 23.6694ZM15.7761 23.7697C15.7761 26.3024 14.4974 28.5376 12.5604 29.8501C12.4607 29.9173 12.3301 29.9173 12.2309 29.8501C10.2934 28.5376 9.01466 26.3024 9.01466 23.7697V16.7962C9.01466 16.6196 9.16765 16.4842 9.34207 16.5032C12.9545 16.9001 15.7761 20.0073 15.7761 23.7697ZM16.2331 0.919661C19.9348 0.919661 22.9941 3.75641 23.4037 7.39592C23.4237 7.57203 23.2886 7.72706 23.1127 7.72706H16.9452C16.7937 7.72706 16.6677 7.61016 16.6537 7.45814C16.4459 5.2064 15.3381 3.21505 13.6986 1.85789C13.5236 1.71289 13.5715 1.43092 13.7843 1.35315C14.5492 1.07269 15.374 0.919661 16.2331 0.919661ZM1.33973 8.22979C1.33973 4.19893 4.57794 0.919661 8.55818 0.919661C9.41732 0.919661 10.2416 1.07269 11.0065 1.35315C11.2188 1.43092 11.2682 1.71289 11.0932 1.85738C9.26832 3.36758 8.1012 5.66347 8.1012 8.22979V15.2033C8.1012 15.3799 7.94821 15.5158 7.7738 15.4963C4.16133 15.0994 1.33973 11.9922 1.33973 8.22979ZM8.55818 31.0798C4.84106 31.0798 1.77179 28.22 1.38209 24.5589C1.36365 24.3833 1.4982 24.2298 1.67361 24.2298H7.84157C7.99406 24.2298 8.12014 24.3472 8.1331 24.5002C8.33144 26.769 9.44274 28.7764 11.0927 30.1421C11.2677 30.2866 11.2193 30.5686 11.0065 30.6463C10.2416 30.9268 9.41732 31.0798 8.55818 31.0798ZM16.2331 31.0798C15.374 31.0798 14.5492 30.9268 13.7843 30.6463C13.5715 30.5686 13.5236 30.2866 13.6986 30.1421C15.3481 28.7764 16.4599 26.769 16.6577 24.5002C16.6712 24.3472 16.7972 24.2298 16.9492 24.2298H23.1177C23.2926 24.2298 23.4277 24.3833 23.4087 24.5589C23.019 28.22 19.9497 31.0798 16.2331 31.0798Z" fill="#DAB19F"/>
</svg>
