<svg width="86" height="32" xmlns="http://www.w3.org/2000/svg"><g fill="none" fill-rule="evenodd"><path d="M49.174 7.753c-.25-.716-.609-.883-1.381-.883h-2.12c-.775 0-1.101.166-1.378.933l-6.587 17.469c-.274.74-.082 1.096.747 1.096h1.9c1.377 0 1.738-.22 2.011-1.016l.883-2.58h6.803l.855 2.58c.252.796.664 1.016 2.04 1.016h2.069c.796 0 1.017-.356.745-1.096l-6.587-17.52zM44.43 19.146l1.435-4.28c.662-1.953.649-3.345.649-3.345h.245s.069 1.392.703 3.372l1.433 4.253h-4.465zM67.952 6.872h-13.09c-.854 0-1.126.274-1.126 1.123v1.84c0 .824.272 1.101 1.127 1.101h4.327v14.309c0 .847.275 1.123 1.1 1.123h2.233c.855 0 1.133-.276 1.133-1.123V10.936h4.295c.856 0 1.132-.277 1.132-1.1v-1.84c0-.85-.276-1.124-1.131-1.124zm11.769 7.167h-4.463v-3.184h8.294c.827 0 1.13-.303 1.13-1.127V7.996c0-.852-.303-1.126-1.13-1.126H71.898c-.826 0-1.132.274-1.132 1.126v17.302c0 .823.332 1.07 1.099 1.07h7.855c3.805 0 6.285-2.359 6.285-6.152 0-3.844-2.48-6.177-6.284-6.177zm-.634 8.347h-3.83V18.02h3.83c1.46 0 2.288.88 2.288 2.197 0 1.294-.827 2.17-2.288 2.17z" fill="#373A36"/><path d="M26.504.535H5.637C2.767.535.42 2.875.42 5.735v20.797c0 2.86 2.348 5.2 5.217 5.2h20.867c2.87 0 5.217-2.34 5.217-5.2V5.735c0-2.86-2.347-5.2-5.217-5.2zm3.582 25.445a.16.16 0 01-.211.048 26.722 26.722 0 00-13.804-3.815 26.72 26.72 0 00-13.804 3.815.159.159 0 01-.178-.26l.02-.016a36.1 36.1 0 009.255-10.559A35.973 35.973 0 0015.91 1.932a.162.162 0 01.32 0 35.991 35.991 0 004.548 13.261 36.11 36.11 0 009.254 10.56l.019.014c.066.05.081.144.034.213z" fill="#FE5000"/></g></svg>